<svg class="animated" id="freepik_stories-solidarity" xmlns="http://www.w3.org/2000/svg" viewBox="0 0 500 500" version="1.1" xmlns:xlink="http://www.w3.org/1999/xlink" xmlns:svgjs="http://svgjs.com/svgjs"><style>svg#freepik_stories-solidarity:not(.animated) .animable {opacity: 0;}svg#freepik_stories-solidarity.animated #freepik--background-complete--inject-90 {animation: 1s 1 forwards cubic-bezier(.36,-0.01,.5,1.38) slideDown;animation-delay: 0s;}svg#freepik_stories-solidarity.animated #freepik--characters-3-and-4--inject-90 {animation: 3s Infinite  linear floating;animation-delay: 0.5s;}svg#freepik_stories-solidarity.animated #freepik--characters-1-and-2--inject-90 {animation: 3s Infinite  linear floating;animation-delay: 0.5s;}            @keyframes slideDown {                0% {                    opacity: 0;                    transform: translateY(-30px);                }                100% {                    opacity: 1;                    transform: translateY(0);                }            }                    @keyframes floating {                0% {                    opacity: 1;                    transform: translateY(0px);                }                50% {                    transform: translateY(-10px);                }                100% {                    opacity: 1;                    transform: translateY(0px);                }            }        </style><g id="freepik--background-complete--inject-90" class="animable" style="transform-origin: 250px 228.455px;"><rect x="322.53" y="401.46" width="8.69" height="0.25" style="fill: rgb(235, 235, 235); transform-origin: 326.875px 401.585px;" id="elxac7ii3mn7a" class="animable"></rect><path d="M237,338.05H43.92a5.71,5.71,0,0,1-5.71-5.71V60.91a5.71,5.71,0,0,1,5.71-5.71H237a5.71,5.71,0,0,1,5.71,5.71V332.34A5.71,5.71,0,0,1,237,338.05ZM43.92,55.45a5.47,5.47,0,0,0-5.46,5.46V332.34a5.47,5.47,0,0,0,5.46,5.46H237a5.47,5.47,0,0,0,5.46-5.46V60.91A5.47,5.47,0,0,0,237,55.45Z" style="fill: rgb(235, 235, 235); transform-origin: 140.46px 196.625px;" id="elin32lxlll1" class="animable"></path><path d="M453.31,338.05H260.21a5.72,5.72,0,0,1-5.71-5.71V60.91a5.72,5.72,0,0,1,5.71-5.71h193.1A5.71,5.71,0,0,1,459,60.91V332.34A5.71,5.71,0,0,1,453.31,338.05ZM260.21,55.45a5.47,5.47,0,0,0-5.46,5.46V332.34a5.47,5.47,0,0,0,5.46,5.46h193.1a5.47,5.47,0,0,0,5.46-5.46V60.91a5.47,5.47,0,0,0-5.46-5.46Z" style="fill: rgb(235, 235, 235); transform-origin: 356.75px 196.625px;" id="el30lhmxp8tz" class="animable"></path><rect x="416.78" y="398.74" width="33.12" height="0.25" style="fill: rgb(235, 235, 235); transform-origin: 433.34px 398.865px;" id="el1jhnfl0cxqk" class="animable"></rect><rect x="396.59" y="389.46" width="19.19" height="0.25" style="fill: rgb(235, 235, 235); transform-origin: 406.185px 389.585px;" id="elctlvsrh30rm" class="animable"></rect><rect x="52.46" y="391.14" width="43.19" height="0.25" style="fill: rgb(235, 235, 235); transform-origin: 74.055px 391.265px;" id="elf27a755okb5" class="animable"></rect><rect x="104.56" y="391.14" width="6.33" height="0.25" style="fill: rgb(235, 235, 235); transform-origin: 107.725px 391.265px;" id="ellgyzemtnei" class="animable"></rect><rect x="131.47" y="395.36" width="93.68" height="0.25" style="fill: rgb(235, 235, 235); transform-origin: 178.31px 395.485px;" id="el5ragrv5uppk" class="animable"></rect><rect y="382.65" width="500" height="0.25" style="fill: rgb(235, 235, 235); transform-origin: 250px 382.775px;" id="elrcrjy68n0b" class="animable"></rect><rect x="48.08" y="365.7" width="41.38" height="16.7" style="fill: rgb(224, 224, 224); transform-origin: 68.77px 374.05px;" id="el566awcxxrth" class="animable"></rect><rect x="88.27" y="365.7" width="41.38" height="16.7" style="fill: rgb(245, 245, 245); transform-origin: 108.96px 374.05px;" id="elierhgimzibp" class="animable"></rect><rect x="128.65" y="365.7" width="41.38" height="16.7" style="fill: rgb(224, 224, 224); transform-origin: 149.34px 374.05px;" id="elk3v6q78ydu" class="animable"></rect><rect x="168.83" y="365.7" width="41.38" height="16.7" style="fill: rgb(245, 245, 245); transform-origin: 189.52px 374.05px;" id="eldzd9vil707u" class="animable"></rect><rect x="209.22" y="365.7" width="41.38" height="16.7" style="fill: rgb(224, 224, 224); transform-origin: 229.91px 374.05px;" id="elyi2vlpccnkh" class="animable"></rect><rect x="249.4" y="365.7" width="41.38" height="16.7" style="fill: rgb(245, 245, 245); transform-origin: 270.09px 374.05px;" id="el96eex9h3tqf" class="animable"></rect><rect x="289.79" y="365.7" width="41.38" height="16.7" style="fill: rgb(224, 224, 224); transform-origin: 310.48px 374.05px;" id="ela3lxosc906s" class="animable"></rect><rect x="329.97" y="365.7" width="41.38" height="16.7" style="fill: rgb(245, 245, 245); transform-origin: 350.66px 374.05px;" id="eltyuqyg95vz" class="animable"></rect><rect x="370.36" y="365.7" width="41.38" height="16.7" style="fill: rgb(224, 224, 224); transform-origin: 391.05px 374.05px;" id="elfbjy0qykuko" class="animable"></rect><rect x="410.54" y="365.7" width="41.38" height="16.7" style="fill: rgb(245, 245, 245); transform-origin: 431.23px 374.05px;" id="elzag2k4zrvw" class="animable"></rect><path d="M142.54,143.64c3.75-1.09,5.92-5.61,5.42-9.5a9.55,9.55,0,0,0-7.87-7.8c.13-1.57.66-2.61.67-4.18a19.9,19.9,0,0,0-9.53-16.85c-5.8-3.46-15.08-3.65-19.36-.36a18.5,18.5,0,0,0-5.1,6.49,15.22,15.22,0,0,0-15.3.17,15.49,15.49,0,0,0-6.88,13.84,14.49,14.49,0,0,0-11.8,1.26,11,11,0,0,0-5.23,10.34c.51,4,3.06,6.87,8.16,7.72C75.72,144.77,106.07,154.28,142.54,143.64Z" style="fill: rgb(240, 240, 240); transform-origin: 107.775px 125.638px;" id="ellrvb8k8ah5" class="animable"></path><path d="M384.76,91.28a11,11,0,1,1,.47,19.32c-4.3,11.71-18.4,11.71-21.69,6.64C358,121,350.21,123.17,343.6,122s-10.29-2.93-15.17-7.54a25.91,25.91,0,0,1-4.38-5.93c-3.66,1.55-11.34,1.71-14.69-.42a9,9,0,0,1-2-12.58c3.39-4.52,9.68-3.77,12.88-2.19-.66-3.84.31-7.81,3.65-9.82a8.93,8.93,0,0,1,10.35.42c2.66-6.71,10.3-12.76,17.49-12.08a17.31,17.31,0,0,1,14.94,13.58c2.74-3.06,6.43-5.1,10.3-3.73S384.55,87.18,384.76,91.28Z" style="fill: rgb(240, 240, 240); transform-origin: 353.445px 97.0626px;" id="el3vlc55oidyb" class="animable"></path><path d="M272,181.86a5.5,5.5,0,0,0-6.8-5.22c.62-4.39-2.26-9.74-6.5-11s-9.16,1.1-11.11,5.07a8.71,8.71,0,1,0-9.33,14,6.26,6.26,0,0,0,3.51,7.47c2.42,1,6.26,1,7.87-1.76,2,3.28,6.08,4.6,9.89,4,3.58-.58,7.72-3.44,6.72-7l-.15-.72C266.13,186.54,272.1,187.48,272,181.86Z" style="fill: rgb(240, 240, 240); transform-origin: 252.168px 179.93px;" id="eltn1xeoeqog" class="animable"></path><path d="M384.58,312.91l-.11-12.18V300l-.1-10.84v-.7l-.09-10.32,0-.67-.09-9.83V267l-.09-9.38V257l-.09-9v-.57l-.08-8.56v-.56l-.07-7.08a5.13,5.13,0,0,1-1.18.55l0,6-7.59,0,6.12-5.6a13.87,13.87,0,0,1-1.91.23l-5,4.6.08-5.41a4.62,4.62,0,0,1-1.18-.68l-.13,7.42V239l-.15,8.56v.58l-.16,8.94v.61l-.16,9.36v.64l-.18,9.82v.68l-.18,10.29v.71L372,300v.73l-.21,12.17-1.05,52.51,14.63.17Zm-1.52-2.28-8.81-9.52H383ZM382.92,300h-8.73l8.67-9.1Zm.1-13.38-8.39-8.6,8.33,0Zm-.1-9.78-8.31,0,8.26-8.27Zm-.07-11.38-8-7.81,7.95,0Zm-.06-9-7.93,0,7.87-7.54ZM382.66,239l0,7.14-7.64-7.1ZM374,240.67l7.64,7.13-7.74,0Zm-.12,8.37,7.75,0-7.86,7.51Zm-.16,10.44,8,7.82-8.09,0Zm-.11,9,8.13,0-8.25,8.23Zm-.16,11.38,8.4,8.63h-8.52Zm-.09,9.79,8.55,0-8.67,9.06Zm0,12,8.82,9.57h-9Z" style="fill: rgb(235, 235, 235); transform-origin: 378.055px 298.25px;" id="eleukvjay91l9" class="animable"></path><path d="M383.72,230.06h-.6l-.41-.38-3.5,3.21a13.87,13.87,0,0,0,1.91-.23l1.42-1.31v.89a5.33,5.33,0,0,0,1.18-.55Zm-10.62.06,0,1.29a4.64,4.64,0,0,0,1.18.69l0-2Z" style="fill: rgb(235, 235, 235); transform-origin: 378.41px 231.285px;" id="el5okj532t725" class="animable"></path><path d="M385.44,229.1a2.1,2.1,0,0,1-.62,1.75l-.41.38a4.3,4.3,0,0,1-.68.47,5.33,5.33,0,0,1-1.18.55,8.17,8.17,0,0,1-1.43.42,13.87,13.87,0,0,1-1.91.23h-.86a10.43,10.43,0,0,1-4.09-.82,4.64,4.64,0,0,1-1.18-.69l-.1-.08-.38-.37a1.92,1.92,0,0,1-.56-1.69l.87-4.88-2.3,0,8-4.07,8.35,3.8-2.35,0Z" style="fill: rgb(235, 235, 235); transform-origin: 378.785px 226.6px;" id="elulenh68ewg" class="animable"></path><polygon points="94.68 151.85 94.68 365.65 135.53 365.65 135.53 177.97 94.68 151.85" style="fill: rgb(240, 240, 240); transform-origin: 115.105px 258.75px;" id="elxb5mnw8ap1r" class="animable"></polygon><polygon points="208.73 236.74 209.04 365.45 218.38 365.45 272.67 365.45 282.01 365.45 282.42 236.74 208.73 236.74" style="fill: rgb(230, 230, 230); transform-origin: 245.575px 301.095px;" id="elcsai3x0oodd" class="animable"></polygon><polygon points="222.98 220.36 223.01 249.06 228.8 249.06 262.4 249.06 268.18 249.06 268.24 220.36 222.98 220.36" style="fill: rgb(230, 230, 230); transform-origin: 245.61px 234.71px;" id="elgwenoqeod6" class="animable"></polygon><polygon points="222.93 249.06 213.38 249.06 213.37 240.46 222.92 240.46 222.93 249.06" style="fill: rgb(250, 250, 250); transform-origin: 218.15px 244.76px;" id="ell9wnhmv549p" class="animable"></polygon><rect x="231.69" y="240.46" width="9.55" height="8.6" style="fill: rgb(250, 250, 250); transform-origin: 236.465px 244.76px;" id="el3g0i9nadmv" class="animable"></rect><rect x="250" y="240.46" width="9.55" height="8.6" style="fill: rgb(250, 250, 250); transform-origin: 254.775px 244.76px;" id="elrmoit932tf" class="animable"></rect><polygon points="277.85 249.06 268.3 249.06 268.32 240.46 277.87 240.46 277.85 249.06" style="fill: rgb(240, 240, 240); transform-origin: 273.085px 244.76px;" id="elm40z85j1cd" class="animable"></polygon><polygon points="222.8 264.73 213.48 264.73 213.46 256.34 222.79 256.34 222.8 264.73" style="fill: rgb(240, 240, 240); transform-origin: 218.13px 260.535px;" id="elyih63jesn5e" class="animable"></polygon><rect x="231.76" y="256.34" width="9.32" height="8.39" style="fill: rgb(240, 240, 240); transform-origin: 236.42px 260.535px;" id="elcbt26bloak" class="animable"></rect><rect x="250.04" y="256.34" width="9.32" height="8.39" style="fill: rgb(250, 250, 250); transform-origin: 254.7px 260.535px;" id="elx9wyhkwo15" class="animable"></rect><polygon points="277.64 264.73 268.32 264.73 268.34 256.34 277.67 256.34 277.64 264.73" style="fill: rgb(250, 250, 250); transform-origin: 272.995px 260.535px;" id="el4tln9zuypw" class="animable"></polygon><polygon points="222.72 280.01 213.62 280.01 213.6 271.83 222.71 271.83 222.72 280.01" style="fill: rgb(240, 240, 240); transform-origin: 218.16px 275.92px;" id="elya46l99dyc" class="animable"></polygon><rect x="231.87" y="271.83" width="9.11" height="8.19" style="fill: rgb(250, 250, 250); transform-origin: 236.425px 275.925px;" id="elk59e0av9gm" class="animable"></rect><rect x="250.14" y="271.83" width="9.11" height="8.19" style="fill: rgb(250, 250, 250); transform-origin: 254.695px 275.925px;" id="elkkcms0vd74b" class="animable"></rect><polygon points="241.18 236.74 231.46 236.74 231.45 227.97 241.18 227.97 241.18 236.74" style="fill: rgb(250, 250, 250); transform-origin: 236.315px 232.355px;" id="elh87n29rbfuq" class="animable"></polygon><polygon points="259.49 236.74 249.77 236.74 249.77 227.97 259.5 227.97 259.49 236.74" style="fill: rgb(240, 240, 240); transform-origin: 254.635px 232.355px;" id="elcsgae8vgln4" class="animable"></polygon><polygon points="277.5 280.01 268.39 280.01 268.41 271.83 277.52 271.83 277.5 280.01" style="fill: rgb(240, 240, 240); transform-origin: 272.955px 275.92px;" id="eldzl1k0ub5au" class="animable"></polygon><polygon points="222.69 294.93 213.8 294.93 213.78 286.94 222.68 286.94 222.69 294.93" style="fill: rgb(250, 250, 250); transform-origin: 218.235px 290.935px;" id="elsxnuth4h40e" class="animable"></polygon><rect x="232.04" y="286.94" width="8.9" height="7.99" style="fill: rgb(240, 240, 240); transform-origin: 236.49px 290.935px;" id="elck0piur6yf" class="animable"></rect><polygon points="259.18 294.93 250.28 294.93 250.29 286.94 259.19 286.94 259.18 294.93" style="fill: rgb(240, 240, 240); transform-origin: 254.735px 290.935px;" id="elawrd2tckpuq" class="animable"></polygon><polygon points="277.42 294.93 268.52 294.93 268.54 286.94 277.44 286.94 277.42 294.93" style="fill: rgb(250, 250, 250); transform-origin: 272.98px 290.935px;" id="elrukjumxh60o" class="animable"></polygon><polygon points="223.09 311.7 213.18 311.7 213.16 302.81 223.08 302.81 223.09 311.7" style="fill: rgb(240, 240, 240); transform-origin: 218.125px 307.255px;" id="el8hx4ps2g0yu" class="animable"></polygon><polygon points="241.3 311.7 231.38 311.7 231.38 302.81 241.3 302.81 241.3 311.7" style="fill: rgb(250, 250, 250); transform-origin: 236.34px 307.255px;" id="elma2ha9eip" class="animable"></polygon><polygon points="259.51 311.7 249.59 311.7 249.59 302.81 259.52 302.81 259.51 311.7" style="fill: rgb(250, 250, 250); transform-origin: 254.555px 307.255px;" id="el20xabwkyt67" class="animable"></polygon><polygon points="277.71 311.7 267.8 311.7 267.81 302.81 277.74 302.81 277.71 311.7" style="fill: rgb(240, 240, 240); transform-origin: 272.77px 307.255px;" id="elikwerl40jbe" class="animable"></polygon><polygon points="223.15 325.87 213.46 325.87 213.44 317.19 223.14 317.19 223.15 325.87" style="fill: rgb(240, 240, 240); transform-origin: 218.295px 321.53px;" id="elvmi5o1271s" class="animable"></polygon><polygon points="241.35 325.87 231.66 325.87 231.65 317.19 241.35 317.19 241.35 325.87" style="fill: rgb(250, 250, 250); transform-origin: 236.5px 321.53px;" id="el9d5euogjkhv" class="animable"></polygon><polygon points="259.55 325.87 249.86 325.87 249.87 317.19 259.56 317.19 259.55 325.87" style="fill: rgb(240, 240, 240); transform-origin: 254.71px 321.53px;" id="el0ykegeowi6l" class="animable"></polygon><polygon points="277.75 325.87 268.06 325.87 268.08 317.19 277.77 317.19 277.75 325.87" style="fill: rgb(250, 250, 250); transform-origin: 272.915px 321.53px;" id="elkkbbwmzsp8q" class="animable"></polygon><polygon points="222.94 341.82 213.5 341.82 213.48 333.37 222.93 333.37 222.94 341.82" style="fill: rgb(250, 250, 250); transform-origin: 218.21px 337.595px;" id="elp2xjvdkjvde" class="animable"></polygon><rect x="231.66" y="333.37" width="9.45" height="8.45" style="fill: rgb(250, 250, 250); transform-origin: 236.385px 337.595px;" id="el7qnxjtguoev" class="animable"></rect><rect x="249.83" y="333.37" width="9.45" height="8.45" style="fill: rgb(240, 240, 240); transform-origin: 254.555px 337.595px;" id="elcrn2g0ab0rm" class="animable"></rect><polygon points="277.44 341.82 267.99 341.82 268.01 333.37 277.47 333.37 277.44 341.82" style="fill: rgb(240, 240, 240); transform-origin: 272.73px 337.595px;" id="elhveuwqkmck7" class="animable"></polygon><polygon points="222.95 356.32 213.72 356.32 213.71 348.07 222.94 348.07 222.95 356.32" style="fill: rgb(240, 240, 240); transform-origin: 218.33px 352.195px;" id="elkw2hgj5b4i9" class="animable"></polygon><polygon points="277.41 356.32 268.19 356.32 268.2 348.07 277.43 348.07 277.41 356.32" style="fill: rgb(250, 250, 250); transform-origin: 272.81px 352.195px;" id="elw8lloz07ond" class="animable"></polygon><polygon points="259.33 348.07 231.79 348.07 231.84 350.15 232.6 350.15 232.62 365.45 235.37 365.45 235.36 350.15 255.8 350.15 255.78 365.45 258.53 365.45 258.56 350.15 259.38 350.15 259.33 348.07" style="fill: rgb(245, 245, 245); transform-origin: 245.585px 356.76px;" id="el26w7f5w1xj4" class="animable"></polygon><polygon points="245.7 365.45 235.49 365.45 235.49 350.15 245.71 350.15 245.7 365.45" style="fill: rgb(230, 230, 230); transform-origin: 240.6px 357.8px;" id="el9miv9dq5k75" class="animable"></polygon><polygon points="255.65 365.45 245.45 365.45 245.45 350.15 255.67 350.15 255.65 365.45" style="fill: rgb(235, 235, 235); transform-origin: 250.56px 357.8px;" id="el72wuia5z7gy" class="animable"></polygon><polygon points="372.21 283 372.4 365.45 361.4 365.45 297.45 365.45 286.45 365.45 285.66 283 372.21 283" style="fill: rgb(245, 245, 245); transform-origin: 329.03px 324.225px;" id="elxlmanjy8anr" class="animable"></polygon><polygon points="355.76 301.33 366.49 301.33 366.46 291.7 355.72 291.7 355.76 301.33" style="fill: rgb(230, 230, 230); transform-origin: 361.105px 296.515px;" id="elg39fgkfofc4" class="animable"></polygon><polygon points="334.35 301.33 345.08 301.33 345.03 291.7 334.3 291.7 334.35 301.33" style="fill: rgb(230, 230, 230); transform-origin: 339.69px 296.515px;" id="elvxjkf4fn16o" class="animable"></polygon><polygon points="312.94 301.33 323.67 301.33 323.6 291.7 312.87 291.7 312.94 301.33" style="fill: rgb(230, 230, 230); transform-origin: 318.27px 296.515px;" id="elqa9nmd1wdjh" class="animable"></polygon><polygon points="291.52 301.33 302.25 301.33 302.17 291.7 291.44 291.7 291.52 301.33" style="fill: rgb(230, 230, 230); transform-origin: 296.845px 296.515px;" id="el5ma069aryst" class="animable"></polygon><polygon points="355.35 320.12 366.91 320.12 366.89 309.75 355.31 309.75 355.35 320.12" style="fill: rgb(230, 230, 230); transform-origin: 361.11px 314.935px;" id="eliht294bmw48" class="animable"></polygon><polygon points="333.98 320.12 345.54 320.12 345.5 309.75 333.92 309.75 333.98 320.12" style="fill: rgb(230, 230, 230); transform-origin: 339.73px 314.935px;" id="el38wimcry2r1" class="animable"></polygon><polygon points="312.61 320.12 324.17 320.12 324.11 309.75 312.53 309.75 312.61 320.12" style="fill: rgb(230, 230, 230); transform-origin: 318.35px 314.935px;" id="elvwlt1in2q29" class="animable"></polygon><polygon points="291.24 320.12 302.8 320.12 302.72 309.75 291.14 309.75 291.24 320.12" style="fill: rgb(230, 230, 230); transform-origin: 296.97px 314.935px;" id="el83qmsy00fm" class="animable"></polygon><polygon points="355.65 337.31 366.88 337.31 366.85 327.26 355.61 327.26 355.65 337.31" style="fill: rgb(230, 230, 230); transform-origin: 361.245px 332.285px;" id="elzdqyp85nnuj" class="animable"></polygon><polygon points="334.3 337.31 345.53 337.31 345.48 327.26 334.25 327.26 334.3 337.31" style="fill: rgb(230, 230, 230); transform-origin: 339.89px 332.285px;" id="elr23fgq110z" class="animable"></polygon><polygon points="312.95 337.31 324.18 337.31 324.11 327.26 312.88 327.26 312.95 337.31" style="fill: rgb(230, 230, 230); transform-origin: 318.53px 332.285px;" id="el45jvfn4kx19" class="animable"></polygon><polygon points="291.6 337.31 302.82 337.31 302.74 327.26 291.51 327.26 291.6 337.31" style="fill: rgb(230, 230, 230); transform-origin: 297.165px 332.285px;" id="elb1fh8zrugus" class="animable"></polygon><polygon points="355.89 354.94 366.78 354.94 366.75 345.21 355.86 345.21 355.89 354.94" style="fill: rgb(230, 230, 230); transform-origin: 361.32px 350.075px;" id="elpy5tvi2q11k" class="animable"></polygon><polygon points="291.93 354.94 302.82 354.94 302.74 345.21 291.84 345.21 291.93 354.94" style="fill: rgb(230, 230, 230); transform-origin: 297.33px 350.075px;" id="elhqjm32r7bw" class="animable"></polygon><polygon points="312.45 345.21 346.12 345.21 346.13 348.15 343.98 348.15 344.06 365.45 340.95 365.45 340.86 348.15 317.76 348.15 317.88 365.45 314.76 365.45 314.64 348.15 312.48 348.15 312.45 345.21" style="fill: rgb(245, 245, 245); transform-origin: 329.29px 355.33px;" id="elenplb1316cs" class="animable"></polygon><polygon points="329.49 365.45 341.03 365.45 340.94 348.15 329.39 348.15 329.49 365.45" style="fill: rgb(230, 230, 230); transform-origin: 335.21px 356.8px;" id="el4tijvfnobnp" class="animable"></polygon><polygon points="317.8 365.45 329.34 365.45 329.23 348.15 317.68 348.15 317.8 365.45" style="fill: rgb(235, 235, 235); transform-origin: 323.51px 356.8px;" id="ela687q79ul2m" class="animable"></polygon><polygon points="52.64 224.81 52.49 365.45 62.7 365.45 122.02 365.45 132.23 365.45 133.16 224.81 52.64 224.81" style="fill: rgb(245, 245, 245); transform-origin: 92.825px 295.13px;" id="elrq73fh77u2f" class="animable"></polygon><polygon points="57.6 228.87 57.58 245.99 57.57 250.69 57.56 255.39 68.01 255.39 68.02 250.69 68.03 245.99 68.06 228.87 57.6 228.87" style="fill: rgb(230, 230, 230); transform-origin: 62.81px 242.13px;" id="el216l6qcy4yu" class="animable"></polygon><polygon points="77.61 228.87 77.57 245.99 77.55 250.69 77.54 255.39 87.99 255.39 88 250.69 88.02 245.99 88.08 228.87 77.61 228.87" style="fill: rgb(230, 230, 230); transform-origin: 82.81px 242.13px;" id="elx5l1f2dq1y" class="animable"></polygon><polygon points="97.63 228.87 97.56 245.99 97.54 250.69 97.52 255.39 107.96 255.39 107.99 250.69 108.01 245.99 108.09 228.87 97.63 228.87" style="fill: rgb(230, 230, 230); transform-origin: 102.805px 242.13px;" id="eludmuufnvhnq" class="animable"></polygon><polygon points="117.64 228.87 117.55 245.99 117.51 253.25 117.5 255.39 127.94 255.39 127.95 253.25 128 245.99 128.11 228.87 117.64 228.87" style="fill: rgb(230, 230, 230); transform-origin: 122.805px 242.13px;" id="el04y6h3a9dcuv" class="animable"></polygon><polygon points="57.63 263.15 57.61 280.24 57.6 284.94 57.6 289.63 68.06 289.63 68.07 284.94 68.08 280.24 68.11 263.15 57.63 263.15" style="fill: rgb(230, 230, 230); transform-origin: 62.855px 276.39px;" id="elqkhn7g858l" class="animable"></polygon><polygon points="77.59 263.15 77.54 280.24 77.53 286.86 77.52 289.63 87.98 289.63 87.99 286.86 88.01 280.24 88.07 263.15 77.59 263.15" style="fill: rgb(230, 230, 230); transform-origin: 82.795px 276.39px;" id="elk1565ljhxlj" class="animable"></polygon><polygon points="97.55 263.15 97.48 280.24 97.46 284.94 97.44 289.63 107.9 289.63 107.92 284.94 107.95 280.24 108.03 263.15 97.55 263.15" style="fill: rgb(230, 230, 230); transform-origin: 102.735px 276.39px;" id="elacjp248ibvn" class="animable"></polygon><polygon points="117.51 263.15 117.41 280.24 117.39 284.94 117.36 289.63 127.82 289.63 127.85 284.94 127.88 280.24 127.99 263.15 117.51 263.15" style="fill: rgb(230, 230, 230); transform-origin: 122.675px 276.39px;" id="el1bi2soe5typ" class="animable"></polygon><polygon points="57.64 297.01 57.61 314.03 57.61 318.71 57.6 323.38 68.04 323.38 68.05 318.71 68.06 314.03 68.1 297.01 57.64 297.01" style="fill: rgb(230, 230, 230); transform-origin: 62.85px 310.195px;" id="el3kkp0ew2k2x" class="animable"></polygon><polygon points="77.54 297.01 77.5 314.03 77.48 318.71 77.47 323.38 87.91 323.38 87.93 318.71 87.95 314.03 88.01 297.01 77.54 297.01" style="fill: rgb(230, 230, 230); transform-origin: 82.74px 310.195px;" id="elh6qlplw1oh5" class="animable"></polygon><polygon points="97.45 297.01 97.38 314.03 97.36 318.71 97.34 323.38 107.78 323.38 107.81 318.71 107.83 314.03 107.92 297.01 97.45 297.01" style="fill: rgb(230, 230, 230); transform-origin: 102.63px 310.195px;" id="el1gxn2343z4z" class="animable"></polygon><polygon points="117.36 297.01 117.26 314.03 117.22 320.49 117.21 323.38 127.65 323.38 127.67 320.49 127.71 314.03 127.82 297.01 117.36 297.01" style="fill: rgb(230, 230, 230); transform-origin: 122.515px 310.195px;" id="elsufjnijzzin" class="animable"></polygon><polygon points="122.58 330.39 117.41 330.39 107.73 330.39 97.4 330.39 87.72 330.39 77.39 330.39 57.38 330.39 57.37 339.63 77.37 339.63 87.69 339.63 97.36 339.63 107.69 339.63 117.36 339.63 122.52 339.63 127.69 339.63 127.75 330.39 122.58 330.39" style="fill: rgb(230, 230, 230); transform-origin: 92.56px 335.01px;" id="el4kwnmpbp56o" class="animable"></polygon><polygon points="107.45 346.46 77.35 346.46 77.28 348.73 78.19 348.73 78.15 365.45 81.16 365.45 81.2 348.73 103.54 348.73 103.46 365.45 106.46 365.45 106.55 348.73 107.38 348.73 107.45 346.46" style="fill: rgb(250, 250, 250); transform-origin: 92.365px 355.955px;" id="elzfsnvq3tcx" class="animable"></polygon><polygon points="92.44 365.45 81.29 365.45 81.34 348.73 92.51 348.73 92.44 365.45" style="fill: rgb(230, 230, 230); transform-origin: 86.9px 357.09px;" id="elr96eu71kqcl" class="animable"></polygon><polygon points="103.32 365.45 92.17 365.45 92.23 348.73 103.4 348.73 103.32 365.45" style="fill: rgb(230, 230, 230); transform-origin: 97.785px 357.09px;" id="elcs5bahpy2zm" class="animable"></polygon><polygon points="205.2 244.25 206.03 365.45 197.23 365.45 146.11 365.45 137.32 365.45 135.81 244.25 205.2 244.25" style="fill: rgb(230, 230, 230); transform-origin: 170.92px 304.85px;" id="elugwqu4doe2" class="animable"></polygon><polygon points="180.69 335.51 184.44 335.51 201.25 335.51 201.28 339.39 201.31 343.27 201.41 357.35 192.71 357.35 192.59 342.88 184.09 342.88 180.75 342.88 175.85 342.88 175.79 335.51 180.69 335.51" style="fill: rgb(240, 240, 240); transform-origin: 188.6px 346.43px;" id="el3dy56c7w2f4" class="animable"></polygon><polygon points="147.51 335.51 150.87 335.51 166.83 335.51 166.91 342.88 150.39 342.88 150.55 357.35 141.85 357.35 141.68 343.27 141.61 337.66 141.59 335.51 147.51 335.51" style="fill: rgb(240, 240, 240); transform-origin: 154.25px 346.43px;" id="el7eqzi7yvphl" class="animable"></polygon><polygon points="159.67 349.12 183.35 349.12 183.37 351.19 183.63 351.19 183.75 365.45 181.19 365.45 181.06 351.19 162.01 351.19 162.17 365.45 159.6 365.45 159.45 351.19 159.69 351.19 159.67 349.12" style="fill: rgb(245, 245, 245); transform-origin: 171.6px 357.285px;" id="elftme3rldnb" class="animable"></polygon><polygon points="171.57 365.45 181.09 365.45 180.96 351.19 171.44 351.19 171.57 365.45" style="fill: rgb(235, 235, 235); transform-origin: 176.265px 358.32px;" id="elbrzargjs3ur" class="animable"></polygon><polygon points="162.26 365.45 171.77 365.45 171.64 351.19 162.12 351.19 162.26 365.45" style="fill: rgb(224, 224, 224); transform-origin: 166.945px 358.32px;" id="el67mlalp0g4m" class="animable"></polygon><polygon points="174.54 249.15 200.94 249.15 201.1 271.9 174.75 271.9 174.54 249.15" style="fill: rgb(240, 240, 240); transform-origin: 187.82px 260.525px;" id="elrm6fd6378lg" class="animable"></polygon><polygon points="140.31 249.15 166.72 249.15 166.94 271.9 140.59 271.9 140.31 249.15" style="fill: rgb(240, 240, 240); transform-origin: 153.625px 260.525px;" id="el07kbfta2x5ug" class="animable"></polygon><polygon points="175.27 277.75 200.54 277.75 200.71 299.5 175.47 299.5 175.27 277.75" style="fill: rgb(240, 240, 240); transform-origin: 187.99px 288.625px;" id="elpf82p4zjfe" class="animable"></polygon><polygon points="141.1 277.75 166.38 277.75 166.6 299.5 141.36 299.5 141.1 277.75" style="fill: rgb(240, 240, 240); transform-origin: 153.85px 288.625px;" id="el3cuidfkawag" class="animable"></polygon><polygon points="175.53 307.32 200.95 307.32 201.11 329.13 175.73 329.13 175.53 307.32" style="fill: rgb(240, 240, 240); transform-origin: 188.32px 318.225px;" id="elodngart4mq" class="animable"></polygon><polygon points="141.47 307.32 166.88 307.32 167.1 329.13 141.72 329.13 141.47 307.32" style="fill: rgb(240, 240, 240); transform-origin: 154.285px 318.225px;" id="el959e342lyxk" class="animable"></polygon><polygon points="384.48 365.01 384.48 262.74 416.5 162.19 449.08 162.19 449.08 365.61 384.48 365.01" style="fill: rgb(235, 235, 235); transform-origin: 416.78px 263.9px;" id="elkqm5ujstkh" class="animable"></polygon><polygon points="416.5 162.19 384.48 262.74 449.08 162.19 416.5 162.19" style="fill: rgb(245, 245, 245); transform-origin: 416.78px 212.465px;" id="ellou689s4nmo" class="animable"></polygon></g><g id="freepik--Shadow--inject-90" class="animable" style="transform-origin: 250px 412.39px;"><ellipse id="freepik--path--inject-90" cx="250" cy="412.39" rx="193.89" ry="11.32" style="fill: rgb(245, 245, 245); transform-origin: 250px 412.39px;" class="animable"></ellipse></g><g id="freepik--characters-3-and-4--inject-90" class="animable" style="transform-origin: 335.98px 270.178px;"><path d="M387,169.65l-1,23.7a9.37,9.37,0,0,1-5.32,8.06c-1.68.8-3.32,1.57-4.09,1.9-1.84.86-3.66,1.58-5.48,2.29-3.67,1.43-7.31,2.73-11.07,3.92l-3.39-8.81c3.07-1.06,15.33-5.58,19.58-7.26l5.46-24.28C381.21,168.57,387,169.65,387,169.65Z" style="fill: rgb(235, 179, 118); transform-origin: 371.825px 189.254px;" id="elbbndxydg9ou" class="animable"></path><path d="M386.52,171.54l2.1-7.93-7.75,0s-.6,4.53,2,6.84Z" style="fill: rgb(235, 179, 118); transform-origin: 384.715px 167.575px;" id="eloxw8ry6ict" class="animable"></path><path d="M387.43,159.18l-2.88-.58a2.34,2.34,0,0,0-2.66,1.58l-1,3.45,7.75,0,.42-2.11A2,2,0,0,0,387.43,159.18Z" style="fill: rgb(235, 179, 118); transform-origin: 384.992px 161.095px;" id="elzqn4y3jiqwl" class="animable"></path><path d="M350.54,200.43c2.56-3.94,20.74-4.43,20.74-4.43l.82,12.68S360.82,212.06,354,212C348.9,210.83,348.84,203.91,350.54,200.43Z" style="fill: rgb(250, 228, 60); transform-origin: 360.821px 204px;" id="el1cki91aj9tv" class="animable"></path><path d="M350.54,200.43c2.56-3.94,20.74-4.43,20.74-4.43l.82,12.68S360.82,212.06,354,212C348.9,210.83,348.84,203.91,350.54,200.43Z" style="fill: rgb(250, 228, 60); transform-origin: 360.821px 204px;" id="el37eg9f5nkdc" class="animable"></path><g id="el1q3xegf4gn2"><path d="M350.54,200.43c2.56-3.94,20.74-4.43,20.74-4.43l.82,12.68S360.82,212.06,354,212C348.9,210.83,348.84,203.91,350.54,200.43Z" style="fill: rgb(255, 255, 255); opacity: 0.1; transform-origin: 360.821px 204px;" class="animable"></path></g><path d="M320.89,188c0,3-.24,0,1.64,5.24s.59,11.17-7.19,9.77-11.74.43-16.91,1.73S286.26,201,289.59,195s2.81-9.81,0-10.06c-5.07-.47-4-9.5.17-14.48,3.28-3.91,3.28-3.91,10.74-4.91C324.3,162.36,320.91,185,320.89,188Z" style="fill: rgb(38, 50, 56); transform-origin: 304.745px 185.094px;" id="eltxv3i6zqmyq" class="animable"></path><path d="M292.65,381.13c-1.44,6.54-3.55,29-3.55,29l-7.49.72s.53-22.4,0-28.8Z" style="fill: rgb(203, 122, 99); transform-origin: 287.13px 395.99px;" id="el2r46u8nh3ax" class="animable"></path><path d="M277.67,409a3.6,3.6,0,0,1-2.47-.45.74.74,0,0,1,0-.85,1,1,0,0,1,.58-.5c1.35-.48,4.34.95,4.47,1a.19.19,0,0,1,0,.36A15.18,15.18,0,0,1,277.67,409Zm-1.43-1.51a1.45,1.45,0,0,0-.36.08.56.56,0,0,0-.37.3c-.12.25-.06.37,0,.43.42.51,2.49.37,4,.07A9.14,9.14,0,0,0,276.24,407.45Z" style="fill: rgb(250, 228, 60); transform-origin: 277.722px 408.079px;" id="el12v8yqtfa73c" class="animable"></path><path d="M280.14,408.54h-.08c-1-.36-3.12-2-3-2.94,0-.23.16-.51.69-.6a1.46,1.46,0,0,1,1.11.25c1.11.79,1.49,3,1.51,3.09a.18.18,0,0,1-.08.18A.15.15,0,0,1,280.14,408.54Zm-2.25-3.18h-.12c-.35.06-.36.2-.37.25,0,.57,1.39,1.87,2.45,2.4a4.61,4.61,0,0,0-1.27-2.45,1.07,1.07,0,0,0-.69-.19Z" style="fill: rgb(250, 228, 60); transform-origin: 278.714px 406.764px;" id="elwmglqey7tlr" class="animable"></path><path d="M280.93,407.33l9-.65a.73.73,0,0,1,.75.51l2.15,7.19a1.2,1.2,0,0,1-.8,1.51l-.25.05c-3.24.18-6.13.21-10.16.5-4.76.35-3.51.83-9.1,1.32-3.37.29-4.26-3.5-2.85-3.79,6.48-1.3,7-3.32,9.37-5.85A3,3,0,0,1,280.93,407.33Z" style="fill: rgb(38, 50, 56); transform-origin: 280.956px 412.227px;" id="eldnccwtbjwbo" class="animable"></path><path d="M308.19,304.45a26.78,26.78,0,0,1-1.92,5.46c-2.91,6.27-9.21,34.44-9.21,34.44,5.57,17.62-3.64,52.84-4.05,54.32l-12.56.82c-.15-1.5-.31-3.17-.48-4.95-1.26-13.23-.68-31.9-1.62-48.13-1.56-26.79,8.93-82.88,8.93-82.88l24.33-1.31,3.64,16A28.65,28.65,0,0,1,308.19,304.45Z" style="fill: rgb(38, 50, 56); transform-origin: 297.101px 330.855px;" id="elkiyhdg9q2jb" class="animable"></path><g id="eldvbll5rvwkv"><path d="M306.74,308.44c-3,6.4-7.84,20.38-7.84,20.38,2.26-7.46,4.53-27.78,8.1-37.19h0Z" style="opacity: 0.2; transform-origin: 302.95px 310.225px;" class="animable"></path></g><path d="M338.56,407.77l-7,2.42s-4.26-13.71-6.55-21.12l10.5-1.15C335.8,392.7,338.56,407.77,338.56,407.77Z" style="fill: rgb(203, 122, 99); transform-origin: 331.785px 399.055px;" id="elnhpz2x16a1r" class="animable"></path><path d="M327.09,408.21a3.47,3.47,0,0,1-2.44-.55.72.72,0,0,1,0-.85,1,1,0,0,1,.6-.47c1.36-.43,4.29,1.12,4.42,1.19a.2.2,0,0,1-.05.37A14.23,14.23,0,0,1,327.09,408.21Zm-1.36-1.56a1.15,1.15,0,0,0-.37.06.56.56,0,0,0-.38.29c-.13.24-.08.36,0,.43.4.52,2.48.47,4,.23A9.07,9.07,0,0,0,325.73,406.65Z" style="fill: rgb(250, 228, 60); transform-origin: 327.143px 407.256px;" id="eludc2dfwr5sk" class="animable"></path><path d="M329.58,407.9a.11.11,0,0,1-.08,0c-1-.4-3-2.13-2.9-3.06,0-.23.18-.5.71-.57a1.45,1.45,0,0,1,1.1.29c1.08.83,1.37,3.05,1.38,3.15a.18.18,0,0,1-.08.18A.2.2,0,0,1,329.58,407.9Zm-2.13-3.28h-.11c-.35,0-.37.18-.38.23,0,.56,1.31,1.92,2.35,2.49a4.58,4.58,0,0,0-1.17-2.49,1,1,0,0,0-.69-.23Z" style="fill: rgb(250, 228, 60); transform-origin: 328.194px 406.081px;" id="elovxf5jhkl6" class="animable"></path><path d="M330.41,406.72l9-.29a.72.72,0,0,1,.73.54l1.86,7.27a1.2,1.2,0,0,1-.86,1.47.69.69,0,0,1-.25,0c-3.24.05-6.14,0-10.17.1-4.77.16-3.54.69-9.15.95-3.37.15-4.11-3.67-2.69-3.9,6.53-1,7.15-3,9.6-5.47A2.9,2.9,0,0,1,330.41,406.72Z" style="fill: rgb(38, 50, 56); transform-origin: 330.118px 411.597px;" id="elwxhbk7znd4" class="animable"></path><path d="M338.88,398.27l-11.44,1.32c-.67-1.44-1.38-3-2.15-4.77-6.83-15.41-17.1-35.08-19.67-52.24-3.92-26.23.52-79.78.52-79.78l23.79-2.38a60.6,60.6,0,0,1,4.62,25.52c-.9,31.56-9.33,54.41-9.33,54.41C336.16,356.32,338.82,396.84,338.88,398.27Z" style="fill: rgb(38, 50, 56); transform-origin: 321.442px 330.005px;" id="el3rk8ektbekh" class="animable"></path><polygon points="340.69 393.13 340.19 397.94 339.28 398.23 338.88 398.27 327.44 399.59 326.77 399.66 324.46 399.93 323.74 394.97 325.29 394.81 326.06 394.74 338.6 393.49 340.29 393.32 340.69 393.13" style="fill: rgb(250, 228, 60); transform-origin: 332.215px 396.53px;" id="el3xb8xzh98ej" class="animable"></polygon><path d="M361.73,197.16a36.51,36.51,0,0,1-16.7,1.4s-10.33,6.24-14.75,8.76a16.39,16.39,0,0,1-6-10.92c6-1.4,12.87-4.07,18.86-5.33,5-1,18.85,1.16,18.85,1.16Z" style="fill: rgb(203, 122, 99); transform-origin: 343.135px 199.063px;" id="elbnr3121xd2m" class="animable"></path><path d="M362,192.23c2.15-.32,5-.45,6.14-.49a1.54,1.54,0,0,1,.91.24c.85.55,2.78,1.77,3.56,2.15a2.08,2.08,0,0,1,1.06,2.08l-.2,1.63a1.52,1.52,0,0,1-1.6,1.42c-1.26-.1-4.17,0-4.17,0s-2.25-.63-6-2.07Z" style="fill: rgb(203, 122, 99); transform-origin: 367.693px 195.5px;" id="elcem9g4xot8q" class="animable"></path><path d="M337.77,203.83s-8.89,5.21-11.91,6.53c-6.23,2.73-10-5.19-9.92-7a6.77,6.77,0,0,1,1.59-4.16c3.3-4.75,16.85-7,16.85-7A63.29,63.29,0,0,0,337.77,203.83Z" style="fill: rgb(250, 228, 60); transform-origin: 326.854px 201.563px;" id="el6oz4vc8x346" class="animable"></path><g id="eli1zlp8d7xno"><path d="M337.77,203.83s-8.89,5.21-11.91,6.53c-6.23,2.73-10-5.19-9.92-7a6.77,6.77,0,0,1,1.59-4.16c3.3-4.75,16.85-7,16.85-7A63.29,63.29,0,0,0,337.77,203.83Z" style="opacity: 0.2; transform-origin: 326.854px 201.563px;" class="animable"></path></g><path d="M284.13,210.46l-8.19,14.95L258.44,242s-4.2-.15-6.28,1.07l4.24,7.33a8.23,8.23,0,0,0,4.53-3.66s15.5-3.52,23.81-16.35c3.75-5.78,10.62-15,10.83-17.71s-1.34-6.68-4.58-6.88S286,206.7,284.13,210.46Z" style="fill: rgb(203, 122, 99); transform-origin: 273.874px 228.089px;" id="el68qjeo6tjl8" class="animable"></path><path d="M283.17,207.56l-7.43,11.11,14.75,7.45s5.78-5.36,6.76-13.15c.82-6.48-3.44-12.48-9.37-10.17A8.57,8.57,0,0,0,283.17,207.56Z" style="fill: rgb(250, 228, 60); transform-origin: 286.546px 214.207px;" id="elvti7a1w15l9" class="animable"></path><g id="eleeionyglt6c"><path d="M283.17,207.56l-7.43,11.11,14.75,7.45s5.78-5.36,6.76-13.15c.82-6.48-3.44-12.48-9.37-10.17A8.57,8.57,0,0,0,283.17,207.56Z" style="opacity: 0.2; transform-origin: 286.546px 214.207px;" class="animable"></path></g><path d="M252.16,243l-2.44,2a2.44,2.44,0,0,0-.51,3.24l1.46,2.21a2.45,2.45,0,0,0,2.9,1l2.83-1Z" style="fill: rgb(203, 122, 99); transform-origin: 252.605px 247.297px;" id="el6xgnl6jcu7d" class="animable"></path><path d="M322.55,195.64c-5.24,2.26-23.77,5.45-29.65,6.36a4,4,0,0,0-3.11,2.47,34.31,34.31,0,0,1-1.66,3.26c-2.15,4.05-3.15,6.23-4.95,9.18-1.7,2.77-.05,5.45.68,7.44a13.14,13.14,0,0,1,.31,6c-4.21,40.76,4.48,37.15,4.48,37.15,20.48-.28,42.12-4.55,42.12-4.55C322.81,238.91,329.29,192.72,322.55,195.64Z" style="fill: rgb(250, 228, 60); transform-origin: 306.604px 231.545px;" id="elm8d22itpz5" class="animable"></path><g id="els2d1yh2bn4"><path d="M322.55,195.64c-5.24,2.26-23.77,5.45-29.65,6.36a4,4,0,0,0-3.11,2.47,34.31,34.31,0,0,1-1.66,3.26c-2.15,4.05-3.15,6.23-4.95,9.18-1.7,2.77-.05,5.45.68,7.44a13.14,13.14,0,0,1,.31,6c-4.21,40.76,4.48,37.15,4.48,37.15,20.48-.28,42.12-4.55,42.12-4.55C322.81,238.91,329.29,192.72,322.55,195.64Z" style="opacity: 0.2; transform-origin: 306.604px 231.545px;" class="animable"></path></g><path d="M299.43,214.09l5.71-3.17a19.43,19.43,0,0,0,9.3-11.87h0c-5.64-1.2-6.05-7.57-5.55-13L299,196.49c1.32,3.77.88,2.73-3.09,5.18C295.7,201.94,289.38,208.35,299.43,214.09Z" style="fill: rgb(203, 122, 99); transform-origin: 304.098px 200.07px;" id="el2m7dylkdyib" class="animable"></path><g id="el7wtcb2ovibo"><path d="M307.17,190.48a13.17,13.17,0,0,0-.43-4.72l-3.47,2.67-3.52,3.71a17.54,17.54,0,0,1,1,4.14C303.66,195.28,306.81,193.09,307.17,190.48Z" style="opacity: 0.2; isolation: isolate; transform-origin: 303.487px 191.02px;" class="animable"></path></g><path d="M311.67,183.53c-1.75,7.18-2.33,10.25-6.67,13.32-6.51,4.61-14.94.9-15.38-6.66-.39-6.79,2.53-17.38,10.15-19a10.08,10.08,0,0,1,11.9,12.34Z" style="fill: rgb(203, 122, 99); transform-origin: 300.784px 184.918px;" id="el2b7d9nzy81g" class="animable"></path><path d="M300.79,169.65c-3.45,2.73-.31,7.48,1.41,9.65s7.25,5.54,5.29,8.82.57,12.61,6.95,10.93S318,179.42,316,174.52,304.9,166.4,300.79,169.65Z" style="fill: rgb(38, 50, 56); transform-origin: 308.81px 183.794px;" id="el8yf1i7c7yfi" class="animable"></path><path d="M295.22,183.72a15.86,15.86,0,0,1-2.78,3.39,2.54,2.54,0,0,0,2,.78Z" style="fill: rgb(183, 77, 60); transform-origin: 293.83px 185.808px;" id="elag1kcp63se8" class="animable"></path><path d="M301.63,181.14a.44.44,0,0,0,.15,0,.29.29,0,0,0,.09-.4h0a3.41,3.41,0,0,0-2.68-1.67.31.31,0,0,0-.3.29.3.3,0,0,0,.28.29,2.9,2.9,0,0,1,2.21,1.4A.29.29,0,0,0,301.63,181.14Z" style="fill: rgb(38, 50, 56); transform-origin: 300.402px 180.108px;" id="elj0h44xtp0jb" class="animable"></path><path d="M291,179a.33.33,0,0,0,.14,0,2.89,2.89,0,0,1,2.59-.22.3.3,0,0,0,.4-.12h0a.3.3,0,0,0-.14-.4,3.44,3.44,0,0,0-3.15.23.3.3,0,0,0-.12.4.28.28,0,0,0,.28.15Z" style="fill: rgb(38, 50, 56); transform-origin: 292.423px 178.512px;" id="el36m12cjj5xa" class="animable"></path><path d="M299.57,183.49c-.11.59-.51,1-.9.94s-.61-.6-.5-1.19.51-1,.89-1S299.67,182.89,299.57,183.49Z" style="fill: rgb(38, 50, 56); transform-origin: 298.868px 183.338px;" id="elzjto1gpa81o" class="animable"></path><path d="M292.89,182.29c-.11.59-.51,1-.89.94s-.61-.59-.51-1.19.51-1,.89-.94S293,181.7,292.89,182.29Z" style="fill: rgb(38, 50, 56); transform-origin: 292.192px 182.165px;" id="el4v5hs667irb" class="animable"></path><path d="M292.54,181.16l-1.34-.66S291.73,181.74,292.54,181.16Z" style="fill: rgb(38, 50, 56); transform-origin: 291.87px 180.907px;" id="elaba28767m7" class="animable"></path><path d="M299.22,182.36l-1.34-.66S298.41,182.93,299.22,182.36Z" style="fill: rgb(38, 50, 56); transform-origin: 298.55px 182.105px;" id="elm4mz27ebueo" class="animable"></path><path d="M311.42,189.94a5.42,5.42,0,0,1-3.12,2.69c-1.81.57-2.78-1-2.34-2.76.4-1.56,1.82-3.75,3.66-3.57a2.43,2.43,0,0,1,1.8,3.64Z" style="fill: rgb(203, 122, 99); transform-origin: 308.804px 189.519px;" id="elexcq0h8ymrs" class="animable"></path><path d="M298.68,190.14a4.49,4.49,0,0,0,.73-.5.16.16,0,0,0,0-.24h0a.17.17,0,0,0-.25,0,4.82,4.82,0,0,1-4.22.93.16.16,0,0,0-.22.11.18.18,0,0,0,.11.22A4.94,4.94,0,0,0,298.68,190.14Z" style="fill: rgb(38, 50, 56); transform-origin: 297.088px 190.092px;" id="elccn72oxman6" class="animable"></path><g id="freepik--freepik--character-1--inject-22--inject-90" class="animable" style="transform-origin: 342.329px 289.544px;"><polygon points="361.4 408.13 354.14 409.24 353.12 401.35 360.72 400.2 361.4 408.13" style="fill: rgb(235, 179, 118); transform-origin: 357.26px 404.72px;" id="el1w1ght1j3wy" class="animable"></polygon><path d="M353.52,407.77l8.24-.92a.64.64,0,0,1,.68.43l2.16,6.38a1.09,1.09,0,0,1-.7,1.38l-.23,0c-2.89.27-4.31.26-7.94.66-2.23.25-8,1.14-11.09,1.48s-3.82-2.66-2.59-3.08c5.55-1.88,8.67-4,10.3-5.79A1.84,1.84,0,0,1,353.52,407.77Z" style="fill: rgb(250, 228, 60); transform-origin: 353.069px 412.026px;" id="eliof5o59mlfs" class="animable"></path><g id="elmrcaaaop0oo"><polygon points="353.02 400.59 353.65 405.32 361.08 404.34 360.73 399.96 353.02 400.59" style="opacity: 0.2; transform-origin: 357.05px 402.64px;" class="animable"></polygon></g><path d="M325.64,251.1c-.64,8.94,5.17,51.54,9.76,70.17,6.1,24.74,16,82.66,16,82.66l10.95-1.67s-.84-49.44-7.83-68.72c-1.77-26.07-6.14-84.59-6.14-84.59Z" style="fill: rgb(38, 50, 56); transform-origin: 343.971px 326.44px;" id="el4evtw2x5yyj" class="animable"></path><g id="elz79w2cn514m"><path d="M350,277.37c-.4-6.61-5.7-11.93-6.19.69-.31,8,3.69,21.58,8,31C351.12,298.83,350.49,287.44,350,277.37Z" style="opacity: 0.2; transform-origin: 347.802px 289.731px;" class="animable"></path></g><polygon points="412.81 385.69 407.6 389.75 401.86 382.2 407.07 378.15 412.81 385.69" style="fill: rgb(235, 179, 118); transform-origin: 407.335px 383.95px;" id="el0qu5lrr1wien" class="animable"></polygon><path d="M406.74,389.7l5.56-6.19a.56.56,0,0,1,.76-.09l5.35,3.93a1.25,1.25,0,0,1,.17,1.77l0,0c-2,2.12-3,3-5.46,5.77-1.51,1.67-3.28,4-5.35,6.33s-4.37.27-3.71-.89c3-5.19,2.12-6.81,2.25-9.42A2,2,0,0,1,406.74,389.7Z" style="fill: rgb(250, 228, 60); transform-origin: 411.408px 392.797px;" id="elq1mu0rt0x8r" class="animable"></path><g id="el80hizqxbsz"><polygon points="401.86 382.2 404.44 385.59 409.7 381.36 407.07 378.15 401.86 382.2" style="opacity: 0.2; transform-origin: 405.78px 381.87px;" class="animable"></polygon></g><path d="M340.31,259.84s14.48,54.74,21.8,75.22c5.28,14.77,40,49.43,40,49.43l7.13-5.23s-14.58-28.88-32.62-47.14c-3.24-23.39-4.9-62.32-15.4-74.18Z" style="fill: rgb(38, 50, 56); transform-origin: 374.775px 321.215px;" id="el4nbf3iwdsz" class="animable"></path><path d="M325.72,214.14c-3.28,3.46-6.67,6.71-10.19,9.9s-22.84,16.44-38.19,19.54a2,2,0,0,1-1.11-3.87l0,0c4.25-1.68,40.35-28,43.59-31.2l0,0a4.09,4.09,0,1,1,5.84,5.72Z" style="fill: rgb(235, 179, 118); transform-origin: 300.853px 225.416px;" id="elh2jo6bcio3" class="animable"></path><path d="M276.86,239.77l-6.54-.86,2.6,7.16s3.93-.62,5.59-3.49Z" style="fill: rgb(235, 179, 118); transform-origin: 274.415px 242.49px;" id="eluzfkd1she8j" class="animable"></path><path d="M320.34,203.46c-6.55,2.14-3.41,4.88-7.72,8.39-5,4.07-4.4,4.73-4.4,4.73l7.77,8.6s9.65-7.26,13.56-10.06S325.29,203.29,320.34,203.46Z" style="fill: rgb(250, 228, 60); transform-origin: 319.387px 214.319px;" id="elkmglx4ox52n" class="animable"></path><g id="ela1in1ql9u0c"><path d="M320.34,203.46c-6.55,2.14-3.41,4.88-7.72,8.39-5,4.07-4.4,4.73-4.4,4.73l7.77,8.6s9.65-7.26,13.56-10.06S325.29,203.29,320.34,203.46Z" style="opacity: 0.1; transform-origin: 319.387px 214.319px;" class="animable"></path></g><path d="M266.08,244l1.86,2.65a1.62,1.62,0,0,0,1.9.6l3.08-1.13-2.6-7.16-3.86,2.78A1.64,1.64,0,0,0,266.08,244Z" style="fill: rgb(235, 179, 118); transform-origin: 269.353px 243.156px;" id="elj1sn40jwr9e" class="animable"></path><path d="M316.18,208.17c1.27,14.7,7.8,40.82,8.52,49.76,1.45,18.28,8.64,63.9,8.64,63.9,8.06,0,26.14-4.6,35.35-11.61l.25-14.72L374.78,308l2.2-4.32-6.06-25.41c-2.23-17.88-14-24-14.29-26.77a248.07,248.07,0,0,1,.82-44.78,6.9,6.9,0,0,0-6-7.7c-.21,0-.42,0-.63,0-1.95-.07-4.12-.1-6.31,0a104.42,104.42,0,0,0-14.66,1.33c-3.4.63-7,1.54-9.62,2.23A5.47,5.47,0,0,0,316.18,208.17Z" style="fill: rgb(250, 228, 60); transform-origin: 346.576px 260.393px;" id="elfvesl326dli" class="animable"></path><g id="elbdgfn7stoin"><g style="opacity: 0.1; transform-origin: 349.9px 260.393px;" class="animable"><path d="M322.82,246.19c.94,4.93,1.66,9.09,1.88,11.74,1.45,18.28,8.64,63.9,8.64,63.9,8.06,0,26.14-4.6,35.35-11.61l.25-14.72L374.78,308l2.2-4.32-6.06-25.41c-2.23-17.88-14-24-14.29-26.77a248.07,248.07,0,0,1,.82-44.78,6.9,6.9,0,0,0-6-7.7c-.21,0-.42,0-.63,0-1.95-.07-4.12-.1-6.31,0h0c-10.25,7.41-18.4,10.49-21.28,33Z" style="fill: rgb(255, 255, 255); transform-origin: 349.9px 260.393px;" id="elcnrjp7qxvaf" class="animable"></path></g></g><path d="M341.6,182.58c-.49,4.8-.64,13.52,2.95,16.36A46.25,46.25,0,0,0,331.68,209c-4.29-6.15-1.79-8.73-1.79-8.73,5.13-1.73,4.65-5.62,3.4-9.2Z" style="fill: rgb(235, 179, 118); transform-origin: 336.858px 195.79px;" id="el654cn7hfs4y" class="animable"></path><path d="M344.81,198.73a7.54,7.54,0,0,1-2-4.8,6.5,6.5,0,0,0-6.07,3.09c-1.37,2.34-1.11,5.24-.81,7.93C338.83,202.85,341.91,200.83,344.81,198.73Z" style="fill: rgb(250, 228, 60); transform-origin: 340.25px 199.429px;" id="elocwbcwol3mm" class="animable"></path><g id="el80zxl40me3k"><path d="M344.81,198.73a7.54,7.54,0,0,1-2-4.8,6.5,6.5,0,0,0-6.07,3.09c-1.37,2.34-1.11,5.24-.81,7.93C338.83,202.85,341.91,200.83,344.81,198.73Z" style="fill: rgb(255, 255, 255); opacity: 0.1; transform-origin: 340.25px 199.429px;" class="animable"></path></g><g id="elkoe9idv7xh"><path d="M340.7,183.51a19.85,19.85,0,0,1-1.22,8.26c-.7,1.82-3,2.8-5.35,3.21a13.05,13.05,0,0,0-.82-3.91Z" style="opacity: 0.2; isolation: isolate; transform-origin: 337.026px 189.245px;" class="animable"></path></g><path d="M330,166.79a48,48,0,0,1-.58,16.64l-2.76-.68c.26-4.55.92-9.31,1.18-13.86-.83,3.26-1.74,6.91-2.57,10.17-.67-.21-1.28-.51-2-.71.65-2.64,1.66-5.35,2.3-8a7.5,7.5,0,0,1,1.23-3A2.79,2.79,0,0,1,330,166.79Z" style="fill: rgb(250, 228, 60); transform-origin: 326.868px 174.972px;" id="eli6xj5yqxvz" class="animable"></path><path d="M321,171.75a4.88,4.88,0,1,0,5.44-8,4.4,4.4,0,0,0-4.21.42,4.77,4.77,0,0,0-1.9,3.62C320.29,169.21,320,170.79,321,171.75Z" style="fill: rgb(38, 50, 56); transform-origin: 324.697px 168.196px;" id="elmyh17u1x1tr" class="animable"></path><path d="M348.57,176c-1.6,7.76-2.05,11.07-6.6,14.54-6.78,5.21-16,1.59-16.75-6.48-.7-7.26,2-18.73,10.08-20.77A10.78,10.78,0,0,1,348.46,171,10.66,10.66,0,0,1,348.57,176Z" style="fill: rgb(235, 179, 118); transform-origin: 336.964px 177.956px;" id="elgkp29y4zpvm" class="animable"></path><path d="M329.45,183.69s2.3-.84,8.94-1.64c-.52,2.12-1.77,3.93-5.17,4.34A3.13,3.13,0,0,1,329.5,184,2.74,2.74,0,0,1,329.45,183.69Z" style="fill: rgb(38, 50, 56); transform-origin: 333.92px 184.255px;" id="elrapmh1yudjq" class="animable"></path><path d="M334.58,184.58A6.23,6.23,0,0,0,331,186a3.75,3.75,0,0,0,2.21.35,6.13,6.13,0,0,0,3.57-1.44A3.57,3.57,0,0,0,334.58,184.58Z" style="fill: rgb(157, 39, 36); transform-origin: 333.89px 185.46px;" id="el4864rimlcd5" class="animable"></path><path d="M329.74,183.6a1.43,1.43,0,0,0,1.17.88,36,36,0,0,0,5.81-1.23,1.92,1.92,0,0,0,1.37-1.18A53.8,53.8,0,0,0,329.74,183.6Z" style="fill: rgb(255, 255, 255); transform-origin: 333.915px 183.275px;" id="elctw4v7whkdv" class="animable"></path><path d="M334.38,162.05a11.48,11.48,0,0,0-8.33,9.64c1.25,0,2.62-.58,3.88-.62a8.13,8.13,0,0,1,3.47-5.46,6.93,6.93,0,0,0-1.79,5.18c1.3.18,2.53.45,3.83.62a15.27,15.27,0,0,1,2.68-5.19c-.06,2,.06,3.95,0,6,1.43.89,2.95,1.88,4.39,2.78a12.6,12.6,0,0,0-.41-9C340.75,163.17,337.35,161.29,334.38,162.05Z" style="fill: rgb(38, 50, 56); transform-origin: 334.6px 168.44px;" id="el95mpmtsjn6i" class="animable"></path><path d="M340.06,163.28c.67,5.39,3.06,12.38,6,16.59,2.52.29,4.92-2.59,5.26-5.57a8.86,8.86,0,0,0-3.18-7.69C346,164.93,342.56,162.88,340.06,163.28Z" style="fill: rgb(38, 50, 56); transform-origin: 345.711px 171.56px;" id="ele8qjdr3x99d" class="animable"></path><path d="M348.15,169.93a48,48,0,0,0,.42,16.65c.87-.2,1.88-.46,2.76-.66-.21-4.55-.82-9.32-1-13.87.8,3.27,1.68,6.93,2.47,10.19.68-.2,1.28-.49,1.95-.69-.62-2.64-1.59-5.36-2.21-8a7.57,7.57,0,0,0-1.21-3A2.79,2.79,0,0,0,348.15,169.93Z" style="fill: rgb(250, 228, 60); transform-origin: 351.184px 178.13px;" id="elacndzxxggel" class="animable"></path><path d="M357,175a4.88,4.88,0,1,1-5.35-8,4.39,4.39,0,0,1,4.2.46,4.79,4.79,0,0,1,1.86,3.65C357.79,172.45,358.06,174,357,175Z" style="fill: rgb(38, 50, 56); transform-origin: 353.285px 171.498px;" id="el3frz63x3tzd" class="animable"></path><path d="M350.69,180.1a5.73,5.73,0,0,1-2.49,3.68c-1.71,1.09-3.15-.28-3.18-2.2,0-1.73.85-4.38,2.8-4.71a2.61,2.61,0,0,1,2.93,2.22A2.86,2.86,0,0,1,350.69,180.1Z" style="fill: rgb(235, 179, 118); transform-origin: 347.895px 180.507px;" id="elf0dxcfaeeoj" class="animable"></path><path d="M336.81,176.69c-.09.63-.5,1.11-.92,1.05s-.68-.63-.59-1.26.5-1.11.92-1S336.9,176.05,336.81,176.69Z" style="fill: rgb(38, 50, 56); transform-origin: 336.055px 176.605px;" id="el4b9x1zoa73z" class="animable"></path><path d="M329.61,175.68c-.09.65-.5,1.11-.92,1s-.68-.61-.59-1.26.5-1.1.91-1.05S329.7,175.05,329.61,175.68Z" style="fill: rgb(38, 50, 56); transform-origin: 328.855px 175.531px;" id="els7hr4eoumug" class="animable"></path><path d="M329.19,174.49l-1.47-.66S328.34,175.14,329.19,174.49Z" style="fill: rgb(38, 50, 56); transform-origin: 328.455px 174.25px;" id="elnct4ism89zf" class="animable"></path><path d="M331.33,177a17.33,17.33,0,0,1-2.83,3.76,2.77,2.77,0,0,0,2.21.74Z" style="fill: rgb(237, 137, 62); transform-origin: 329.915px 179.259px;" id="elt9k4kdpzyz" class="animable"></path><path d="M338.76,174.47a.47.47,0,0,1-.14-.14,3,3,0,0,0-2.22-1.58.39.39,0,0,1-.35-.4.38.38,0,0,1,.4-.36h0a3.79,3.79,0,0,1,2.84,2,.39.39,0,0,1-.17.52A.36.36,0,0,1,338.76,174.47Z" style="fill: rgb(38, 50, 56); transform-origin: 337.69px 173.265px;" id="el73111als237" class="animable"></path><path d="M327.31,172.83l-.06,0a.38.38,0,0,1-.06-.53,3.78,3.78,0,0,1,3.15-1.31.38.38,0,0,1,.32.42h0a.38.38,0,0,1-.43.32,3,3,0,0,0-2.51,1.06A.35.35,0,0,1,327.31,172.83Z" style="fill: rgb(38, 50, 56); transform-origin: 328.886px 171.929px;" id="elktlw0kkrogd" class="animable"></path><path d="M336.4,175.49l-1.48-.66S335.54,176.15,336.4,175.49Z" style="fill: rgb(38, 50, 56); transform-origin: 335.66px 175.252px;" id="elp15j9ad8rof" class="animable"></path><path d="M335.86,205.16a30.5,30.5,0,0,0-4.75,4.63c-.26.31-.51.65-.77,1-2.35-2.72-2.8-6.78-1.84-10.3a4.76,4.76,0,0,0,4.06-4.21c.62-.25,1.25.29,1.69.79a4.16,4.16,0,0,1,.81,1.83A26.47,26.47,0,0,1,335.86,205.16Z" style="fill: rgb(250, 228, 60); transform-origin: 331.944px 203.503px;" id="el1akcwi8528ui" class="animable"></path></g><polygon points="295.43 395.62 294.68 400.41 292.29 400.56 279.72 401.39 277.4 401.53 276.92 396.55 279.25 396.43 293.54 395.72 295.43 395.62" style="fill: rgb(250, 228, 60); transform-origin: 286.175px 398.575px;" id="el3w9syr9truz" class="animable"></polygon><path d="M387.53,125.53s12.54-4.3,19.47-.85,16.15-1.52,16.15-1.52-5.59,8.52-4.37,17.13c0,0-8.52,5.84-15.23.31s-16.86,2.22-16.86,2.22Z" style="fill: rgb(250, 228, 60); transform-origin: 404.92px 133.07px;" id="elj9o8olvo22m" class="animable"></path><g id="els0amiqmba89"><path d="M387.53,125.53s12.54-4.3,19.47-.85,16.15-1.52,16.15-1.52-5.59,8.52-4.37,17.13c0,0-8.52,5.84-15.23.31s-16.86,2.22-16.86,2.22Z" style="fill: rgb(255, 255, 255); opacity: 0.5; transform-origin: 404.92px 133.07px;" class="animable"></path></g><g id="elsyo7en9iku"><rect x="364.6" y="143.78" width="44.01" height="1.64" style="fill: rgb(38, 50, 56); transform-origin: 386.605px 144.6px; transform: rotate(-87.24deg);" class="animable"></rect></g></g><g id="freepik--characters-1-and-2--inject-90" class="animable" style="transform-origin: 169.324px 245.313px;"><path d="M236.94,235l6.7,7.75,4.29,4.78a3,3,0,0,1-.27,4.32l-1.14,1a3.36,3.36,0,0,1-2.13.82l-1.2,0a3.3,3.3,0,0,1-3-1.72l-1.53-2.9a3,3,0,0,1-.32-1l-.48-3.81-5.46-5.12Z" style="fill: rgb(113, 64, 62); transform-origin: 240.561px 244.336px;" id="elh4frcrgzu1o" class="animable"></path><path d="M243.06,240.27l-7.52,4s-8.12-11-16.66-24c-3-4.63-9.09-13.16-9.09-13.16-4-8.1-9.46-27.12-8.4-27.12,7,0,11.34,3.43,17.55,16.32C222.42,203.63,243.06,240.27,243.06,240.27Z" style="fill: rgb(250, 228, 60); transform-origin: 222.158px 212.13px;" id="ele5w9w5j80y8" class="animable"></path><polygon points="184.26 389.08 188.24 409.81 196.02 409.13 194.25 388.23 184.26 389.08" style="fill: rgb(113, 64, 62); transform-origin: 190.14px 399.02px;" id="elwlxqz1ora9c" class="animable"></polygon><path d="M196.78,408.18a.17.17,0,0,1-.15-.15.17.17,0,0,1,.08-.19c.12-.07,2.79-1.71,4.11-1.39a1,1,0,0,1,.59.41.69.69,0,0,1,0,.8,3.33,3.33,0,0,1-2.28.67A13.65,13.65,0,0,1,196.78,408.18Zm.59-.27c1.46.14,3.43.07,3.77-.45.05-.07.1-.18,0-.41a.5.5,0,0,0-.37-.24,1.34,1.34,0,0,0-.35,0A8.75,8.75,0,0,0,197.37,407.91Z" style="fill: rgb(250, 228, 60); transform-origin: 199.081px 407.374px;" id="ell1g806b74f" class="animable"></path><path d="M196.68,408.17a.18.18,0,0,1-.09-.16c0-.1.15-2.21,1.12-3.06a1.42,1.42,0,0,1,1-.35c.51,0,.68.29.71.5.19.88-1.63,2.62-2.55,3.07h-.08A.2.2,0,0,1,196.68,408.17Zm1.94-3.21a.93.93,0,0,0-.63.25,4.32,4.32,0,0,0-1,2.42c.94-.6,2.13-2,2.07-2.49,0,0,0-.18-.37-.2l-.11,0Z" style="fill: rgb(250, 228, 60); transform-origin: 198.012px 406.388px;" id="elj10gw7cw9gr" class="animable"></path><path d="M196,407.11l-8.52.26a.68.68,0,0,0-.65.56l-1.33,7a1.14,1.14,0,0,0,.9,1.34l.24,0c3.07-.15,5.79-.4,9.62-.51,4.51-.14,3.38.44,8.69.35,3.19-.06,3.67-3.71,2.31-3.85-6.23-.59-6.93-2.44-9.39-4.59A2.73,2.73,0,0,0,196,407.11Z" style="fill: rgb(38, 50, 56); transform-origin: 196.727px 411.686px;" id="eldh0d7ola3xn" class="animable"></path><g id="el5wwolpgd3nf"><polygon points="195.35 401.2 194.25 388.23 184.26 389.08 186.75 401.64 195.35 401.2" style="opacity: 0.2; transform-origin: 189.805px 394.935px;" class="animable"></polygon></g><polygon points="230.68 385.95 234.1 408.55 226.87 408.89 221.05 388.73 230.68 385.95" style="fill: rgb(113, 64, 62); transform-origin: 227.575px 397.42px;" id="elivn0u7dg2ms" class="animable"></polygon><g id="elio6dklunce"><polygon points="231.25 389.7 232.6 398.64 224.28 399.93 221.65 390.81 231.25 389.7" style="opacity: 0.2; transform-origin: 227.125px 394.815px;" class="animable"></polygon></g><path d="M235.78,407.85a.21.21,0,0,1-.16-.14.18.18,0,0,1,.08-.2c.11-.08,2.71-1.84,4-1.58a1,1,0,0,1,.61.38.71.71,0,0,1,.08.8,3.33,3.33,0,0,1-2.25.77A13.74,13.74,0,0,1,235.78,407.85Zm.58-.29c1.46.06,3.43-.1,3.75-.64,0-.06.09-.18-.07-.4a.51.51,0,0,0-.38-.23,1.45,1.45,0,0,0-.36,0A8.6,8.6,0,0,0,236.36,407.56Z" style="fill: rgb(250, 228, 60); transform-origin: 238.046px 406.91px;" id="elf832mzfqz1" class="animable"></path><path d="M235.68,407.85a.22.22,0,0,1-.09-.16c0-.1,0-2.22,1-3.11a1.4,1.4,0,0,1,1-.4c.51,0,.69.26.72.47.24.86-1.5,2.7-2.4,3.18a.11.11,0,0,1-.08,0A.19.19,0,0,1,235.68,407.85Zm1.79-3.31a1,1,0,0,0-.62.28,4.41,4.41,0,0,0-.85,2.47c.92-.64,2.05-2.06,2-2.58,0,0-.05-.18-.38-.19l-.11,0Z" style="fill: rgb(250, 228, 60); transform-origin: 236.961px 406.019px;" id="elefwe2a282fl" class="animable"></path><path d="M234.9,406.82l-8.5.66a.68.68,0,0,0-.62.59l-1,7a1.13,1.13,0,0,0,1,1.3,1,1,0,0,0,.24,0c3.06-.29,5.77-.67,9.59-1,4.5-.35,3.4.28,8.7-.06,3.19-.2,3.49-3.88,2.13-3.95-6.25-.3-7-2.12-9.6-4.14A2.73,2.73,0,0,0,234.9,406.82Z" style="fill: rgb(38, 50, 56); transform-origin: 235.986px 411.579px;" id="elh4mnu205dzm" class="animable"></path><path d="M213.53,247.68s12.31,75,13.66,87.55,6.18,58.4,6.18,58.4l-11.1,2s-14.35-34.11-13.16-56.72c0,0-12.48-43.29-16.42-52.77,0,0-11.74-15.73-7.18-39.37Z" style="fill: rgb(38, 50, 56); transform-origin: 208.914px 321.2px;" id="ela5i11tou5h9" class="animable"></path><g id="elai4maqmt2r7"><path d="M203.55,317.58c-2.27-7.24-4.44-13.84-5.81-17.12a24.32,24.32,0,0,1-5.46-3.8c-.63-2.79-1-4.58-1-4.58l5.32-22.6S203.86,294.7,203.55,317.58Z" style="opacity: 0.2; transform-origin: 197.42px 293.53px;" class="animable"></path></g><polygon points="235.46 390.3 235.67 395.12 220.46 396.99 219.23 392.03 235.46 390.3" style="fill: rgb(38, 50, 56); transform-origin: 227.45px 393.645px;" id="elu5gutqlb6" class="animable"></polygon><g id="el97fatr7smu7"><polygon points="235.46 390.3 235.67 395.12 220.46 396.99 219.23 392.03 235.46 390.3" style="fill: rgb(255, 255, 255); opacity: 0.5; transform-origin: 227.45px 393.645px;" class="animable"></polygon></g><path d="M197.47,249.57l.42,40.43,1.36,19.5a340.33,340.33,0,0,1-.52,53.71l-3,34.07-12,1.36s-7.09-40.62-2.27-60.93c0,0-13-56-11.35-88.14Z" style="fill: rgb(38, 50, 56); transform-origin: 185.016px 324.105px;" id="el7n7dsu7cox8" class="animable"></path><polygon points="183.15 394.13 184 398.88 198.57 397.38 198.57 392.63 183.15 394.13" style="fill: rgb(38, 50, 56); transform-origin: 190.86px 395.755px;" id="elwhipfkrjhke" class="animable"></polygon><g id="elftmgyn61ae6"><polygon points="183.15 394.13 184 398.88 198.57 397.38 198.57 392.63 183.15 394.13" style="fill: rgb(255, 255, 255); opacity: 0.5; transform-origin: 190.86px 395.755px;" class="animable"></polygon></g><path d="M171.34,256.79l-5.22-65.51c-1.68-12.14.48-16.45,5.07-15.43l30.2,4.23c7.51,2,8.67,5.88,8.94,9h0A421.26,421.26,0,0,0,213,247.73l.75,6.57Z" style="fill: rgb(250, 228, 60); transform-origin: 189.652px 216.248px;" id="elga8aorr5crh" class="animable"></path><path d="M184.83,161.36c.06,4.67-.49,12.64-3.49,16.35a2.46,2.46,0,0,0,0,3.06,16.78,16.78,0,0,0,10,6.61c5.18,1.15,6.06-1.59,5.44-4a2.43,2.43,0,0,0-1.17-1.49c-4.64-2.49-4.19-6.87-2.56-10.47Z" style="fill: rgb(113, 64, 62); transform-origin: 188.88px 174.505px;" id="el2gppovcnuw8" class="animable"></path><g id="elqxyxlu2qvn"><path d="M188.17,165.5l4.89,5.95a16.37,16.37,0,0,0-.93,2.74,8,8,0,0,1-5-5.6C186.85,167,187.58,165.57,188.17,165.5Z" style="opacity: 0.2; isolation: isolate; transform-origin: 190.064px 169.845px;" class="animable"></path></g><path d="M184.26,153.64c-.36,7-.92,11.14,2.21,15.11,4.69,6,13.69,3.75,16.13-3,2.21-6.14,2.41-16.59-4.11-20.14a9.6,9.6,0,0,0-14.23,8Z" style="fill: rgb(113, 64, 62); transform-origin: 193.983px 158.322px;" id="eltdxgwkxh8pc" class="animable"></path><path d="M197.09,169l-2.48-.36c.31.86.58,1.75.89,2.61C196.1,170.47,196.49,169.75,197.09,169Z" style="fill: rgb(38, 50, 56); transform-origin: 195.85px 169.945px;" id="elbol389e9fr7" class="animable"></path><path d="M195,156.89c-.06.57.18,1.07.56,1.11s.72-.39.78-1-.18-1.06-.56-1.1S195,156.32,195,156.89Z" style="fill: rgb(38, 50, 56); transform-origin: 195.67px 156.95px;" id="elwaj26k7971c" class="animable"></path><path d="M201.4,157.61c-.07.57.18,1.06.56,1.1s.72-.38.78-1-.18-1.06-.56-1.1S201.46,157,201.4,157.61Z" style="fill: rgb(38, 50, 56); transform-origin: 202.069px 157.66px;" id="elu9dcu9oh34k" class="animable"></path><path d="M199.13,157.71a20.44,20.44,0,0,0,2.63,4.95,3.34,3.34,0,0,1-2.75.46Z" style="fill: rgb(86, 22, 22); transform-origin: 200.385px 160.473px;" id="el1l7493g8l3f" class="animable"></path><path d="M193.06,154a.3.3,0,0,1-.16-.05.35.35,0,0,1,0-.48,3.38,3.38,0,0,1,2.88-1.07.34.34,0,0,1,.27.39.33.33,0,0,1-.39.27h0a2.67,2.67,0,0,0-2.27.88A.31.31,0,0,1,193.06,154Z" style="fill: rgb(38, 50, 56); transform-origin: 194.43px 153.2px;" id="el1nh5b1p0jg3" class="animable"></path><path d="M204.19,155.3a.35.35,0,0,1-.24-.22,2.67,2.67,0,0,0-1.69-1.71A.35.35,0,0,1,202,153a.34.34,0,0,1,.41-.25,3.39,3.39,0,0,1,2.19,2.16.33.33,0,0,1-.2.42h0A.33.33,0,0,1,204.19,155.3Z" style="fill: rgb(38, 50, 56); transform-origin: 203.309px 154.038px;" id="eld8ezgr1ohw7" class="animable"></path><path d="M183.14,160.76a29.65,29.65,0,0,1-2.35-18.43,21.38,21.38,0,0,1,13.26-3c4.52.63,7.36,0,10.54,3.3,0,0-.88,5.74-1.82,7.54a33,33,0,0,0-4.84-1.14,29.79,29.79,0,0,0-9.88.61c.24,1.8.72,3.82.95,5.62a3.1,3.1,0,0,0-2.51,1c.25,2.23-.42,4.48-.17,6.72C185.48,162.28,183.62,161.74,183.14,160.76Z" style="fill: rgb(38, 50, 56); transform-origin: 192.418px 151.1px;" id="elql2b5dworv9" class="animable"></path><path d="M180.11,159.77a6.75,6.75,0,0,0,3.82,3.41c2.23.74,3.47-1.21,3-3.37-.46-1.95-2.17-4.69-4.45-4.51S179.19,157.8,180.11,159.77Z" style="fill: rgb(113, 64, 62); transform-origin: 183.4px 159.316px;" id="elkz6kkb3twsb" class="animable"></path><path d="M200.27,165.47a52.41,52.41,0,0,0-8.36-1.15c.51,1.62,1.72,3,4.87,3.27S200.27,165.47,200.27,165.47Z" style="fill: rgb(38, 50, 56); transform-origin: 196.09px 165.966px;" id="el62txvhx2pv9" class="animable"></path><path d="M200,165.4c-.22.32-.54,1.26-1.22,1.32a41.48,41.48,0,0,1-5.43-.87c-.56-.13-.9-.95-1.17-1.51A62.27,62.27,0,0,1,200,165.4Z" style="fill: rgb(255, 255, 255); transform-origin: 196.09px 165.53px;" id="el5qbh3lcmo85" class="animable"></path><path d="M219.43,231.63l7.4,5.9,4.71,3.62a2.94,2.94,0,0,1,.61,4l-.8,1.13a3,3,0,0,1-1.71,1.16l-1,.25a2.94,2.94,0,0,1-3-1l-1.91-2.39a3.07,3.07,0,0,1-.48-.89L222.05,240l-5.81-3.7Z" style="fill: rgb(238, 193, 187); transform-origin: 224.458px 239.704px;" id="eliazgcwc7h8g" class="animable"></path><polygon points="108.97 389.45 100.31 408.78 93.36 406.69 99.37 386.58 108.97 389.45" style="fill: rgb(238, 193, 187); transform-origin: 101.165px 397.68px;" id="elce20swezsup" class="animable"></polygon><g id="el17nayqtutwl"><polygon points="107.42 392.92 104.09 400.35 95.89 398.2 98.75 388.65 107.42 392.92" style="opacity: 0.2; transform-origin: 101.655px 394.5px;" class="animable"></polygon></g><polygon points="177.9 387.93 181.07 408.87 174.09 410.87 168.27 390.71 177.9 387.93" style="fill: rgb(238, 193, 187); transform-origin: 174.67px 399.4px;" id="el4or2rbajkax" class="animable"></polygon><g id="elttzwhnzagm"><polygon points="178.47 391.68 179.69 399.74 171.63 402.36 168.87 392.79 178.47 391.68" style="opacity: 0.2; transform-origin: 174.28px 397.02px;" class="animable"></polygon></g><path d="M102.23,407.49a.23.23,0,0,1-.13-.17.18.18,0,0,1,.12-.18c.12-.05,3-1.25,4.27-.72a1,1,0,0,1,.53.5.71.71,0,0,1-.09.8,3.34,3.34,0,0,1-2.36.3A14.41,14.41,0,0,1,102.23,407.49Zm.63-.17c1.42.37,3.37.61,3.8.15.06-.05.12-.16,0-.4a.53.53,0,0,0-.33-.31,1,1,0,0,0-.34-.09A8.64,8.64,0,0,0,102.86,407.32Z" style="fill: rgb(250, 228, 60); transform-origin: 104.602px 407.2px;" id="elcug9bbwu5kt" class="animable"></path><path d="M102.13,407.46a.18.18,0,0,1-.06-.17c0-.1.51-2.16,1.6-2.84a1.36,1.36,0,0,1,1.06-.18c.5.11.62.39.62.6.05.9-2,2.33-3,2.62h-.08A.16.16,0,0,1,102.13,407.46Zm2.43-2.86a1,1,0,0,0-.66.15,4.32,4.32,0,0,0-1.34,2.24c1-.44,2.43-1.6,2.45-2.13,0-.05,0-.19-.34-.26Z" style="fill: rgb(250, 228, 60); transform-origin: 103.709px 405.863px;" id="elxxpsikzzq6f" class="animable"></path><path d="M101.58,406.3l-8.45-1.1a.68.68,0,0,0-.74.44L90,412.32a1.14,1.14,0,0,0,.67,1.47l.23.06c3.06.34,5.79.53,9.58,1,4.48.59,3.27,1,8.53,1.74,3.17.45,4.22-3.08,2.9-3.43-6.06-1.58-6.46-3.52-8.54-6A2.75,2.75,0,0,0,101.58,406.3Z" style="fill: rgb(38, 50, 56); transform-origin: 101.197px 410.911px;" id="elg7v30pe01h6" class="animable"></path><path d="M182.08,405.23a.19.19,0,0,1-.2-.08.2.2,0,0,1,0-.21c.08-.11,1.87-2.69,3.2-2.93a1,1,0,0,1,.71.14.68.68,0,0,1,.36.72c-.11.52-.94,1.11-1.81,1.53A13.9,13.9,0,0,1,182.08,405.23Zm.44-.48c1.39-.47,3.16-1.33,3.27-1.94,0-.08,0-.2-.21-.35a.53.53,0,0,0-.44-.08,1.5,1.5,0,0,0-.34.11A8.6,8.6,0,0,0,182.52,404.75Z" style="fill: rgb(250, 228, 60); transform-origin: 184.005px 403.615px;" id="el22i4ew3jcqw" class="animable"></path><path d="M182,405.26a.2.2,0,0,1-.15-.12c0-.09-.75-2.08-.2-3.25a1.34,1.34,0,0,1,.79-.72c.48-.18.74,0,.85.17.53.72-.44,3.06-1.1,3.83a.1.1,0,0,1-.07,0A.17.17,0,0,1,182,405.26Zm.48-3.73a1,1,0,0,0-.47.49,4.31,4.31,0,0,0,.09,2.61c.63-.94,1.17-2.66.9-3.12,0,0-.11-.15-.43,0l-.09,0Z" style="fill: rgb(250, 228, 60); transform-origin: 182.445px 403.178px;" id="elvkn3zgax10h" class="animable"></path><path d="M180.89,404.58l-7.69,3.67a.7.7,0,0,0-.38.78l1.6,6.92a1.14,1.14,0,0,0,1.36.87l.23-.08c2.75-1.37,5.15-2.7,8.6-4.34,4.08-1.95,3.28-1,8.1-3.18,2.91-1.34,1.87-4.87.57-4.45-5.94,2-7.33.55-10.45-.42A2.73,2.73,0,0,0,180.89,404.58Z" style="fill: rgb(38, 50, 56); transform-origin: 183.691px 410.557px;" id="elp03xl8yjfdh" class="animable"></path><path d="M161.44,256.12s8.73,61.4,10.08,73.93,8.12,64.46,8.12,64.46l-10.15,2s-12.55-37.77-14.9-62.79c0,0-10.74-37.23-14.68-46.7,0,0-11.74-13.63-7.18-37.27Z" style="fill: rgb(38, 50, 56); transform-origin: 155.659px 323.13px;" id="el5xjtul7a4yq" class="animable"></path><g id="el86msst8409j"><path d="M145.72,304.16c-2.26-7.23-4.44-13.84-5.81-17.12a24.32,24.32,0,0,1-5.46-3.8c-.63-2.79-1-4.57-1-4.57l8.07-11.38S143.2,291,145.72,304.16Z" style="opacity: 0.2; transform-origin: 139.585px 285.725px;" class="animable"></path></g><path d="M142.26,251.88s-2.89,72.41-8.82,88-26.22,55.69-26.22,55.69l-9.51-4.42s10.84-46.87,19.64-57.71l-1.83-50.75s-7.26-23.92-.42-36.8Z" style="fill: rgb(38, 50, 56); transform-origin: 119.985px 320.73px;" id="el5bhixz5ezl4" class="animable"></path><polygon points="110.23 395.23 107.85 399.75 93.92 394.44 95.4 389.26 110.23 395.23" style="fill: rgb(250, 228, 60); transform-origin: 102.075px 394.505px;" id="elowk8gt6gct" class="animable"></polygon><polygon points="181.25 390.88 181.94 395.65 166.99 399.03 165.27 394.22 181.25 390.88" style="fill: rgb(250, 228, 60); transform-origin: 173.605px 394.955px;" id="eltpq3awmo6ir" class="animable"></polygon><path d="M223.37,233.77l-4.65,5.78-42.53-30.11-5.58-3.67-1.36-.89a8.79,8.79,0,0,1-3.31-8.56c.5-3.14,2.55-4.48,4.29-6.76a3,3,0,0,1,4.79.16Z" style="fill: rgb(250, 228, 60); transform-origin: 194.584px 213.997px;" id="elhfgw7jsw2p" class="animable"></path><g id="el5hfrb96shbc"><g style="opacity: 0.2; transform-origin: 194.584px 213.997px;" class="animable"><path d="M223.37,233.77l-4.65,5.78-42.53-30.11-5.58-3.67-1.36-.89a8.79,8.79,0,0,1-3.31-8.56c.5-3.14,2.55-4.48,4.29-6.76a3,3,0,0,1,4.79.16Z" id="elxep8k6vklkc" class="animable" style="transform-origin: 194.584px 213.997px;"></path></g></g><path d="M136.19,179.16l34.51,7.94a7.38,7.38,0,0,1,5.52,8.94l-3.6,11.09a274.47,274.47,0,0,0-10.42,44l-.76,5L115.1,245.88l12.19-61A7.4,7.4,0,0,1,136.19,179.16Z" style="fill: rgb(250, 228, 60); transform-origin: 145.765px 217.552px;" id="elab5tu9qjpej" class="animable"></path><g id="elfad0fohgy2a"><path d="M136.19,179.16l34.51,7.94a7.38,7.38,0,0,1,5.52,8.94l-3.6,11.09a274.47,274.47,0,0,0-10.42,44l-.76,5L115.1,245.88l12.19-61A7.4,7.4,0,0,1,136.19,179.16Z" style="opacity: 0.2; transform-origin: 145.765px 217.552px;" class="animable"></path></g><g id="elsjcuwjgooq"><path d="M166.54,218a2.18,2.18,0,0,1-.86,1.29,5.64,5.64,0,0,1-4.83.83,7.55,7.55,0,0,1-4.21-4.18,2.29,2.29,0,0,1-.09-1.59l2.7-9a2.31,2.31,0,0,1,2.82-1.56c1.79.48,3.92,1.07,5.48,1.52a2.31,2.31,0,0,1,1.58,2.82C168.18,211.58,167,216.23,166.54,218Z" style="fill: rgb(255, 255, 255); opacity: 0.5; transform-origin: 162.829px 212.023px;" class="animable"></path></g><polygon points="170.29 245.51 213.33 246.59 215.91 261.86 199.58 270.29 170.1 262.22 170.29 245.51" style="fill: rgb(38, 50, 56); transform-origin: 193.005px 257.9px;" id="elosp4wduaiw" class="animable"></polygon><g id="el8oh5t7rwzqu"><path d="M123.81,204.06c2.82-1.7,11.9-23.27,11.9-23.27a67.36,67.36,0,0,1-8.29,5.65C126.57,191.09,124.67,199.4,123.81,204.06Z" style="opacity: 0.2; transform-origin: 129.76px 192.425px;" class="animable"></path></g><path d="M98,139.22l-2.8-9.81-1.86-6.11a3.17,3.17,0,0,1,2-3.92l1.4-.49a3.23,3.23,0,0,1,2.23,0l1.07.44a3.18,3.18,0,0,1,2,2.76l.17,3.29a3.26,3.26,0,0,1-.12,1.08L101,130.25l2.78,6.88Z" style="fill: rgb(238, 193, 187); transform-origin: 98.4913px 128.956px;" id="eltbqw36g4ti" class="animable"></path><path d="M136.87,179.3a3.66,3.66,0,0,0-1.55-2.65c-3.51-2.41-13-9.36-18.74-17.3-7.08-9.85-13.89-27.66-13.89-27.66l-7.16,2.56s4.41,26.78,11,35.92c5.38,7.5,16,16.8,20.27,20.37a5.58,5.58,0,0,0,7.34-.15C135.69,188.88,137.44,185.74,136.87,179.3Z" style="fill: rgb(250, 228, 60); transform-origin: 116.255px 161.767px;" id="elhgwmeipj9p" class="animable"></path><g id="elez6kw658fdj"><path d="M136.87,179.3a3.66,3.66,0,0,0-1.55-2.65c-3.51-2.41-13-9.36-18.74-17.3-7.08-9.85-13.89-27.66-13.89-27.66l-7.16,2.56s4.41,26.78,11,35.92c5.38,7.5,16,16.8,20.27,20.37a5.58,5.58,0,0,0,7.34-.15C135.69,188.88,137.44,185.74,136.87,179.3Z" style="opacity: 0.2; transform-origin: 116.255px 161.767px;" class="animable"></path></g><g id="el9uiuvpa9rk"><g style="opacity: 0.5; transform-origin: 152.805px 186.775px;" class="animable"><path d="M159.69,184.56s-.31,3.36-4.16,2.88-8.55-6.23-8.55-6.23l-3.55-.42,6.89,10.55,5.12-1.69,4.22,3.11,2.52-7.45Z" style="fill: rgb(255, 255, 255); transform-origin: 152.805px 186.775px;" id="eljmu0q9q1569" class="animable"></path></g></g><path d="M134.36,189.18l-4,8.86-2.62,5.49a3,3,0,0,0,1.33,4l1.25.66a3,3,0,0,0,2.11.26l1.07-.25a3.06,3.06,0,0,0,2.25-2.33l.63-3.08a3,3,0,0,0,0-1l-.53-3.68,3.57-6.09Z" style="fill: rgb(113, 64, 62); transform-origin: 133.425px 198.858px;" id="elhxehxygtn5" class="animable"></path><path d="M167.32,186.53s-14.41-3.52-19.83-5.71c-1-.39-8.88,16-8.88,16L131,194s5.55-21,12.89-22.21c8.6-1.42,27.3,4.08,27.3,4.08C175.73,176.66,175.54,188.41,167.32,186.53Z" style="fill: rgb(250, 228, 60); transform-origin: 152.581px 184.188px;" id="eltmonfllwwo" class="animable"></path><path d="M160.75,185.38l-.21.41a4.8,4.8,0,0,1-4.23,2.59h0c-.79,0-2.63,0-6.63-2.77h0a13.56,13.56,0,0,1-3.05-3.4v0a2.39,2.39,0,0,1,.4-.71c3-3.71,3.56-11.68,3.51-16.35l8.21,10.11C157.18,178.68,156.71,182.85,160.75,185.38Z" style="fill: rgb(238, 193, 187); transform-origin: 153.69px 176.765px;" id="elgl9azy6f1bw" class="animable"></path><g id="elsvpqnwfu1s"><path d="M152.49,170.35l6.06,5.28a17.51,17.51,0,0,0-.84,2.88,8.31,8.31,0,0,1-5.83-5C151.39,172.05,151.91,170.49,152.49,170.35Z" style="opacity: 0.2; isolation: isolate; transform-origin: 155.118px 174.43px;" class="animable"></path></g><path d="M166.29,148.32s7.08,7.35,1.41,9.92S166.29,148.32,166.29,148.32Z" style="fill: rgb(38, 50, 56); transform-origin: 167.327px 153.454px;" id="elda0bwefaywr" class="animable"></path><path d="M150,157.4c-.37,7-.93,11.14,2.19,15.12,4.69,6,13.69,3.76,16.14-3,2.21-6.14,2.43-16.59-4.1-20.14a9.61,9.61,0,0,0-14.23,8Z" style="fill: rgb(238, 193, 187); transform-origin: 159.717px 162.097px;" id="el7i1o9ixhlke" class="animable"></path><path d="M160.67,160.66c-.06.57.19,1.07.56,1.11s.72-.39.79-1-.19-1.06-.56-1.1S160.74,160.1,160.67,160.66Z" style="fill: rgb(38, 50, 56); transform-origin: 161.346px 160.72px;" id="elufd0gll7nf" class="animable"></path><path d="M167.1,161.39c-.06.57.18,1.06.56,1.1s.72-.38.78-1-.18-1.07-.55-1.11S167.16,160.82,167.1,161.39Z" style="fill: rgb(38, 50, 56); transform-origin: 167.77px 161.435px;" id="elhgcustskkxq" class="animable"></path><path d="M164.69,161.34a20.54,20.54,0,0,0,2.17,5.16,3.34,3.34,0,0,1-2.78.21Z" style="fill: rgb(212, 130, 125); transform-origin: 165.47px 164.129px;" id="el8lve2gtvffu" class="animable"></path><path d="M159.81,157.72a.33.33,0,0,1-.16-.05.35.35,0,0,1,0-.48,3.37,3.37,0,0,1,2.87-1.07.34.34,0,0,1,.28.39.35.35,0,0,1-.4.28h0a2.65,2.65,0,0,0-2.26.87A.34.34,0,0,1,159.81,157.72Z" style="fill: rgb(38, 50, 56); transform-origin: 161.18px 156.918px;" id="el27z6kegsadz" class="animable"></path><path d="M169.33,159.12a.33.33,0,0,1-.24-.22,2.68,2.68,0,0,0-1.69-1.72.33.33,0,0,1-.25-.4.34.34,0,0,1,.41-.25,3.37,3.37,0,0,1,2.19,2.16.33.33,0,0,1-.2.42h0A.3.3,0,0,1,169.33,159.12Z" style="fill: rgb(38, 50, 56); transform-origin: 168.455px 157.828px;" id="elh8y0wqyh3sb" class="animable"></path><path d="M161.05,168.66a5.23,5.23,0,0,1-.73-.5.16.16,0,0,1,0-.24h0a.19.19,0,0,1,.25,0,4.79,4.79,0,0,0,4.22.93.18.18,0,0,1,.22.11.18.18,0,0,1-.11.23A5,5,0,0,1,161.05,168.66Z" style="fill: rgb(38, 50, 56); transform-origin: 162.643px 168.617px;" id="eliy6hr3lmlp" class="animable"></path><path d="M150.85,164.17s3.38-.09,2.75-3,2.86-5.47,2.5-9.34c0,0,18.87,4.68,14.24-5.28-1.89-3.39-9.5-3.74-15.23-3.31-7.52.56-6.08,4.91-6.08,4.91C140.84,149.28,143.18,166.16,150.85,164.17Z" style="fill: rgb(38, 50, 56); transform-origin: 157.481px 153.713px;" id="eln3086a3xbr" class="animable"></path><path d="M145.82,163.53a6.73,6.73,0,0,0,3.81,3.41c2.22.75,3-1.62,3-3.37-.46-1.94-2.16-4.69-4.44-4.51S144.89,161.56,145.82,163.53Z" style="fill: rgb(238, 193, 187); transform-origin: 149.054px 163.067px;" id="el89ez5rympi5" class="animable"></path><path d="M157.18,97.7c-18.34,10.55-41.83-4.5-59.37,10q-.15-11.69-.19-23c17.79-16.17,46.41,3.61,63.95-10.92C161.66,81.65,157.15,90.19,157.18,97.7Z" style="fill: rgb(250, 228, 60); transform-origin: 129.596px 90.74px;" id="el49r26hlekn8" class="animable"></path><g id="elr65bmuee8u"><path d="M157.18,97.7c-18.34,10.55-41.83-4.5-59.37,10q-.15-11.69-.19-23c17.79-16.17,46.41,3.61,63.95-10.92C161.66,81.65,157.15,90.19,157.18,97.7Z" style="fill: rgb(255, 255, 255); opacity: 0.5; transform-origin: 129.596px 90.74px;" class="animable"></path></g><g id="elo53120u1dpk"><rect x="96.48" y="81.62" width="1.64" height="44.01" style="fill: rgb(38, 50, 56); transform-origin: 97.3px 103.625px; transform: rotate(-0.84deg);" class="animable"></rect></g></g><defs>     <filter id="active" height="200%">         <feMorphology in="SourceAlpha" result="DILATED" operator="dilate" radius="2"></feMorphology>                <feFlood flood-color="#32DFEC" flood-opacity="1" result="PINK"></feFlood>        <feComposite in="PINK" in2="DILATED" operator="in" result="OUTLINE"></feComposite>        <feMerge>            <feMergeNode in="OUTLINE"></feMergeNode>            <feMergeNode in="SourceGraphic"></feMergeNode>        </feMerge>    </filter>    <filter id="hover" height="200%">        <feMorphology in="SourceAlpha" result="DILATED" operator="dilate" radius="2"></feMorphology>                <feFlood flood-color="#ff0000" flood-opacity="0.5" result="PINK"></feFlood>        <feComposite in="PINK" in2="DILATED" operator="in" result="OUTLINE"></feComposite>        <feMerge>            <feMergeNode in="OUTLINE"></feMergeNode>            <feMergeNode in="SourceGraphic"></feMergeNode>        </feMerge>            <feColorMatrix type="matrix" values="0   0   0   0   0                0   1   0   0   0                0   0   0   0   0                0   0   0   1   0 "></feColorMatrix>    </filter></defs></svg>